<svg width="80" height="80" viewBox="0 0 80 80" fill="none" xmlns="http://www.w3.org/2000/svg">
<path d="M72 40C72 57.6732 57.6732 72 40 72C22.3268 72 8 57.6732 8 40C8 22.3268 22.3268 8 40 8C57.6732 8 72 22.3268 72 40Z" fill="white"/>
<path d="M40 80C17.9089 80 0 62.0911 0 40C0 17.9089 17.9089 0 40 0C62.0911 0 80 17.9089 80 40C79.9753 62.0807 62.0807 79.9753 40 80ZM40 2.66667C19.3815 2.66667 2.66667 19.3815 2.66667 40C2.66667 60.6185 19.3815 77.3333 40 77.3333C60.6185 77.3333 77.3333 60.6185 77.3333 40C77.3099 19.3913 60.6087 2.6901 40 2.66667Z" fill="#F9BE40"/>
<path d="M40 54.6667C40 51.7214 35.8217 49.3333 30.6667 49.3333C25.5118 49.3333 21.3334 51.7214 21.3334 54.6667V30.6667C21.3334 27.7213 25.5118 25.3333 30.6667 25.3333C35.8217 25.3333 40 27.7213 40 30.6667V54.6667Z" fill="#5153FF"/>
<path d="M58.6667 54.6667C58.6667 51.7214 54.4883 49.3333 49.3333 49.3333C44.1784 49.3333 40 51.7214 40 54.6667V30.6667C40 27.7213 44.1784 25.3333 49.3333 25.3333C54.4883 25.3333 58.6667 27.7213 58.6667 30.6667V54.6667Z" fill="#5153FF"/>
<path d="M21.3334 30.6667H58.6667V54.6667H21.3334V30.6667Z" fill="#FFD780"/>
<path d="M49.3334 25.3333C44.1784 25.3333 40 27.7213 40 30.6667C40 27.7213 35.8217 25.3333 30.6667 25.3333C25.5118 25.3333 21.3334 27.7213 21.3334 30.6667V54.6667C21.3334 51.7214 25.5118 49.3333 30.6667 49.3333C35.8217 49.3333 40 51.7214 40 54.6667C40 51.7214 44.1784 49.3333 49.3334 49.3333C54.4883 49.3333 58.6667 51.7214 58.6667 54.6667V30.6667C58.6667 27.7213 54.4883 25.3333 49.3334 25.3333Z" fill="#FFAE00"/>
<path d="M41.3333 27.929C40.528 28.6172 40.0449 29.6087 40 30.6667C39.955 29.6087 39.472 28.6172 38.6666 27.929V51.929C39.472 52.6172 39.955 53.6087 40 54.6667C40.0449 53.6087 40.528 52.6172 41.3333 51.929V27.929Z" fill="#FFD780"/>
</svg>
