<svg width="80" height="80" viewBox="0 0 80 80" fill="none" xmlns="http://www.w3.org/2000/svg">
<path d="M72 40C72 57.6732 57.6732 72 40 72C22.3268 72 8 57.6732 8 40C8 22.3268 22.3268 8 40 8C57.6732 8 72 22.3268 72 40Z" fill="white"/>
<path d="M40 80C17.9089 80 0 62.0911 0 40C0 17.9089 17.9089 0 40 0C62.0911 0 80 17.9089 80 40C79.9753 62.0807 62.0807 79.9753 40 80ZM40 2.66667C19.3815 2.66667 2.66667 19.3815 2.66667 40C2.66667 60.6185 19.3815 77.3333 40 77.3333C60.6185 77.3333 77.3333 60.6185 77.3333 40C77.3099 19.3913 60.6087 2.6901 40 2.66667Z" fill="#F9BE40"/>
<path d="M25.3334 25.3333H54.6667C56.1394 25.3333 57.3334 26.5274 57.3334 28V54.6667H22.6667V28C22.6667 26.5274 23.8608 25.3333 25.3334 25.3333Z" fill="#FFD780"/>
<path d="M54.6667 25.3333H25.3334C23.8608 25.3333 22.6667 26.5274 22.6667 28V33.3333H57.3334V28C57.3334 26.5274 56.1394 25.3333 54.6667 25.3333Z" fill="#FFAE00"/>
<path d="M32 33.3333H34.6667V54.6667H32V33.3333Z" fill="#FFAE00"/>
<path d="M54.6667 29.3333C54.6667 30.0697 54.0697 30.6667 53.3333 30.6667C52.597 30.6667 52 30.0697 52 29.3333C52 28.597 52.597 28 53.3333 28C54.0697 28 54.6667 28.597 54.6667 29.3333Z" fill="#FFD780"/>
<path d="M50.6667 29.3333C50.6667 30.0697 50.0697 30.6667 49.3333 30.6667C48.597 30.6667 48 30.0697 48 29.3333C48 28.597 48.597 28 49.3333 28C50.0697 28 50.6667 28.597 50.6667 29.3333Z" fill="#FFD780"/>
<path d="M46.6667 29.3333C46.6667 30.0697 46.0697 30.6667 45.3333 30.6667C44.597 30.6667 44 30.0697 44 29.3333C44 28.597 44.597 28 45.3333 28C46.0697 28 46.6667 28.597 46.6667 29.3333Z" fill="#FFD780"/>
</svg>
