<svg width="80" height="80" viewBox="0 0 80 80" fill="none" xmlns="http://www.w3.org/2000/svg">
<path d="M72 40C72 57.6732 57.6732 72 40 72C22.3268 72 8 57.6732 8 40C8 22.3268 22.3268 8 40 8C57.6732 8 72 22.3268 72 40Z" fill="white"/>
<path d="M54.304 25.696C52.2214 23.6133 48.8444 23.6133 46.7611 25.696L44.8763 27.5814L26.0202 46.4375L24 56L33.5625 53.9798L52.4186 35.1237L54.304 33.239C56.3867 31.1556 56.3867 27.7787 54.304 25.696Z" fill="#FFAE00"/>
<path d="M40 80C17.9089 80 0 62.0911 0 40C0 17.9089 17.9089 0 40 0C62.0911 0 80 17.9089 80 40C79.9753 62.0807 62.0807 79.9753 40 80ZM40 2.66667C19.3815 2.66667 2.66667 19.3815 2.66667 40C2.66667 60.6185 19.3815 77.3333 40 77.3333C60.6185 77.3333 77.3333 60.6185 77.3333 40C77.3099 19.3913 60.6087 2.6901 40 2.66667Z" fill="#F9BE40"/>
<path d="M26.0202 46.4375L33.5625 53.9798L24 56L26.0202 46.4375Z" fill="#FFD780"/>
<path d="M54.3047 25.6966C56.3874 27.7793 56.3874 31.1562 54.3047 33.2389L52.4193 35.125L44.8763 27.582L46.7624 25.6966C48.8451 23.6139 52.222 23.6139 54.3047 25.6966Z" fill="#FFD780"/>
<path d="M56 57.5H24C23.2636 57.5 22.6666 56.903 22.6666 56.1666C22.6666 55.4303 23.2636 54.8333 24 54.8333H56C56.7363 54.8333 57.3333 55.4303 57.3333 56.1666C57.3333 56.903 56.7363 57.5 56 57.5Z" fill="#FFD780"/>
</svg>
