<svg width="80" height="80" viewBox="0 0 80 80" fill="none" xmlns="http://www.w3.org/2000/svg">
<path d="M72 40C72 57.6732 57.6732 72 40 72C22.3268 72 8 57.6732 8 40C8 22.3268 22.3268 8 40 8C57.6732 8 72 22.3268 72 40Z" fill="white"/>
<path d="M40 80C17.9089 80 0 62.0911 0 40C0 17.9089 17.9089 0 40 0C62.0911 0 80 17.9089 80 40C79.9753 62.0807 62.0807 79.9753 40 80ZM40 2.66667C19.3815 2.66667 2.66667 19.3815 2.66667 40C2.66667 60.6185 19.3815 77.3333 40 77.3333C60.6185 77.3333 77.3333 60.6185 77.3333 40C77.3099 19.3913 60.6087 2.6901 40 2.66667Z" fill="#F9BE40"/>
<path d="M53.3333 58.6666L40 52L26.6667 58.6666L29.3333 45.3333L20 36L33.3333 33.3333L40 21.3333L46.6667 33.3333L60 36L50.6667 45.3333L53.3333 58.6666Z" fill="#FFAE00"/>
</svg>
