<svg width="266" height="82" viewBox="0 0 266 82" fill="none" xmlns="http://www.w3.org/2000/svg">
<path d="M104.144 80.4386C103.134 79.2723 102.562 77.9061 102.494 76.3399C102.393 74.8071 102.629 73.2076 103.134 71.5415C103.639 69.8754 104.312 68.3092 105.153 66.8097C105.995 65.3102 106.836 64.044 107.677 62.9776C105.793 63.1776 104.177 62.8444 102.898 61.9447C101.586 61.0449 100.61 59.812 99.9028 58.2126C99.1961 56.6464 98.8258 54.9469 98.7585 53.1475C98.6912 51.3481 98.9268 49.6487 99.4653 48.0492C99.7345 47.2828 100.172 46.6163 100.711 46.0831C101.249 45.55 101.855 45.1835 102.461 45.0835C103.067 44.9835 103.571 45.1835 104.009 45.75C104.446 46.3164 104.648 47.3494 104.648 48.8489C104.648 49.0822 104.648 49.3821 104.615 49.7153C104.581 50.715 104.581 51.848 104.615 53.1475C104.648 54.4471 104.817 55.6134 105.086 56.6464C105.355 57.6794 105.86 58.2792 106.567 58.4458C108.048 58.2792 109.192 57.6794 109.966 56.613C110.74 55.5467 111.279 54.2805 111.615 52.781C111.952 51.2815 112.187 49.8486 112.356 48.4158C112.49 47.1162 112.659 46.0831 112.894 45.2501C113.13 44.4837 113.567 44.0505 114.173 44.0172C114.779 43.9839 115.351 44.2504 115.89 44.8502C116.428 45.45 116.697 46.2498 116.731 47.3494C116.697 47.9492 116.697 48.5824 116.664 49.1822C116.63 50.5484 116.63 51.7813 116.664 52.9143C116.697 54.0472 116.832 54.847 117.101 55.2802C117.337 55.5467 117.808 55.5134 118.515 55.1468C119.222 54.7803 119.996 54.2472 120.871 53.5474C121.746 52.8476 122.554 52.1812 123.328 51.5147C123.664 51.2148 124.001 50.9483 124.27 50.7483C125.414 49.8153 125.987 49.682 125.953 50.2818C125.953 50.8816 125.515 51.8813 124.64 53.3142C123.765 54.7137 122.655 56.1799 121.308 57.6794C119.962 59.1789 118.481 60.3452 116.933 61.2116C116.866 63.8107 116.596 66.5764 116.125 69.4755C115.654 72.3745 114.779 74.9404 113.5 77.1397C112.793 78.306 111.918 79.3389 110.841 80.3053C109.764 81.2383 108.654 81.8048 107.476 81.9714C106.298 82.138 105.221 81.5716 104.144 80.4386ZM111.817 63.3109C111.11 63.9773 110.404 65.1769 109.663 66.9097C108.923 68.6424 108.384 70.4085 108.048 72.1746C107.711 73.9407 107.778 75.307 108.25 76.1733C108.553 76.0067 108.923 75.3403 109.36 74.1407C109.798 72.9744 110.202 71.6081 110.606 70.042C111.009 68.4758 111.312 67.0763 111.582 65.7767C111.851 64.4771 111.885 63.7108 111.817 63.3109Z" fill="#F9BE40"/>
<path d="M104.144 80.4386C103.134 79.2723 102.562 77.9061 102.494 76.3399C102.393 74.8071 102.629 73.2076 103.134 71.5415C103.639 69.8754 104.312 68.3092 105.153 66.8097C105.995 65.3102 106.836 64.044 107.677 62.9776C105.793 63.1776 104.177 62.8444 102.898 61.9447C101.586 61.0449 100.61 59.812 99.9028 58.2126C99.1961 56.6464 98.8258 54.9469 98.7585 53.1475C98.6912 51.3481 98.9268 49.6487 99.4653 48.0492C99.7345 47.2828 100.172 46.6163 100.711 46.0831C101.249 45.55 101.855 45.1835 102.461 45.0835C103.067 44.9835 103.571 45.1835 104.009 45.75C104.446 46.3164 104.648 47.3494 104.648 48.8489C104.648 49.0822 104.648 49.3821 104.615 49.7153C104.581 50.715 104.581 51.848 104.615 53.1475C104.648 54.4471 104.817 55.6134 105.086 56.6464C105.355 57.6794 105.86 58.2792 106.567 58.4458C108.048 58.2792 109.192 57.6794 109.966 56.613C110.74 55.5467 111.279 54.2805 111.615 52.781C111.952 51.2815 112.187 49.8486 112.356 48.4158C112.49 47.1162 112.659 46.0831 112.894 45.2501C113.13 44.4837 113.567 44.0505 114.173 44.0172C114.779 43.9839 115.351 44.2504 115.89 44.8502C116.428 45.45 116.697 46.2498 116.731 47.3494C116.697 47.9492 116.697 48.5824 116.664 49.1822C116.63 50.5484 116.63 51.7813 116.664 52.9143C116.697 54.0472 116.832 54.847 117.101 55.2802C117.337 55.5467 117.808 55.5134 118.515 55.1468C119.222 54.7803 119.996 54.2472 120.871 53.5474C121.746 52.8476 122.554 52.1812 123.328 51.5147C123.664 51.2148 124.001 50.9483 124.27 50.7483C125.414 49.8153 125.987 49.682 125.953 50.2818C125.953 50.8816 125.515 51.8813 124.64 53.3142C123.765 54.7137 122.655 56.1799 121.308 57.6794C119.962 59.1789 118.481 60.3452 116.933 61.2116C116.866 63.8107 116.596 66.5764 116.125 69.4755C115.654 72.3745 114.779 74.9404 113.5 77.1397C112.793 78.306 111.918 79.3389 110.841 80.3053C109.764 81.2383 108.654 81.8048 107.476 81.9714C106.298 82.138 105.221 81.5716 104.144 80.4386ZM111.817 63.3109C111.11 63.9773 110.404 65.1769 109.663 66.9097C108.923 68.6424 108.384 70.4085 108.048 72.1746C107.711 73.9407 107.778 75.307 108.25 76.1733C108.553 76.0067 108.923 75.3403 109.36 74.1407C109.798 72.9744 110.202 71.6081 110.606 70.042C111.009 68.4758 111.312 67.0763 111.582 65.7767C111.851 64.4771 111.885 63.7108 111.817 63.3109Z" fill="#F9BE40"/>
<path d="M42.9594 38.3848C43.195 37.4518 43.6325 36.3189 44.2047 34.9526C44.7769 33.5864 45.4837 32.3868 46.3251 31.2538C47.1665 30.1542 48.0752 29.4544 49.0849 29.2212C50.0946 28.9879 51.1379 29.4878 52.2486 30.754C52.7871 31.4205 53.09 32.3535 53.191 33.5531C53.2919 34.7527 53.2583 36.1189 53.0227 37.6517C55.143 37.5851 56.8596 37.5851 58.2058 37.6184C59.5521 37.6518 60.2925 37.7517 60.3598 37.885C60.6627 38.7847 60.4271 39.4845 59.7203 40.0177C58.9799 40.5508 57.9365 40.9174 56.5903 41.1506C55.244 41.3839 53.7968 41.5172 52.215 41.5505C51.5755 44.2163 50.835 46.5489 49.9936 48.5149C49.1522 50.4809 48.0415 52.1137 46.6616 53.3799C47.0991 55.4792 47.8396 56.8455 48.8829 57.4786C49.8926 58.1117 51.0706 58.2117 52.3832 57.8452C53.6958 57.4453 55.0084 56.7789 56.3547 55.8125C57.701 54.8462 58.9462 53.8131 60.0906 52.7468C61.2349 51.6805 62.1436 50.7808 62.8167 50.0477C63.3889 49.4812 63.7591 49.4479 63.8938 50.0144C64.0284 50.5809 63.7591 51.6139 63.086 53.1467C62.4129 54.5796 61.5378 56.0124 60.3935 57.5119C59.2828 59.0114 58.0039 60.311 56.5566 61.4773C55.1094 62.6436 53.5949 63.41 52.013 63.8432C50.4312 64.2764 48.8156 64.1098 47.2674 63.41C45.6519 62.6103 44.4066 61.344 43.5652 59.5779C42.7238 57.8118 42.1516 55.8125 41.8824 53.6132C41.6131 51.4139 41.5459 49.2146 41.6468 47.0487C41.7478 44.8827 41.9833 42.9834 42.2863 41.3172C40.9063 41.3172 39.4928 41.2172 37.9446 41.084C36.3964 40.9507 35.1175 40.6841 33.9731 40.3175C34.7472 39.8844 35.9589 39.5178 37.5407 39.1846C39.1226 38.8514 40.9737 38.6181 42.9594 38.3848ZM46.5606 48.8814C47.1328 48.3816 47.705 47.5819 48.2098 46.4822C48.7147 45.3826 49.1859 43.7831 49.5898 41.6505C48.9166 41.6505 48.2435 41.6171 47.604 41.5838C47.1664 43.0167 46.8299 44.4162 46.628 45.8158C46.4933 47.182 46.4597 48.215 46.5606 48.8814ZM50.0946 37.8184C50.2292 35.6524 50.0946 34.6527 49.758 34.7527C49.4214 34.8527 48.9839 35.919 48.4791 37.885C49.0176 37.885 49.5897 37.8517 50.0946 37.8184Z" fill="#F9BE40"/>
<path d="M65.3403 61.6108C63.5228 60.7777 62.2102 59.4115 61.4025 57.6121C60.5611 55.7794 60.2918 53.8467 60.5274 51.814C60.763 49.7813 61.6044 47.9819 62.9843 46.4824C64.4989 44.9496 66.2154 43.9166 68.1338 43.3834C70.0186 42.8503 71.6677 42.8836 73.014 43.5167C74.6968 44.4165 75.9084 45.6827 76.6825 47.3822C77.4566 49.0816 77.7596 50.881 77.6586 52.8137C77.524 54.7464 76.9855 56.5124 76.0431 58.1119C75.0671 59.7114 73.6871 60.8777 71.9033 61.6108C70.1195 62.3439 67.9318 62.3105 65.3403 61.6108ZM66.7539 49.5814C65.9124 50.4145 65.4749 51.3808 65.4413 52.5471C65.4076 53.7134 65.5759 54.7797 66.0471 55.7128C66.4846 56.6458 67.0904 57.2122 67.8309 57.4122C68.6386 57.5788 69.5137 57.5121 70.4224 57.2456C71.7014 56.8457 72.5428 56.1126 73.014 55.0463C73.4515 53.9799 73.5861 52.847 73.3169 51.6807C72.8457 49.748 72.0379 48.6151 70.7926 48.2152C69.581 47.8153 68.2347 48.2818 66.7539 49.5814Z" fill="#F9BE40"/>
<path d="M79.9806 49.9148C79.6777 48.6486 79.644 47.7489 79.9133 47.2157C80.1489 46.6492 80.7884 46.2493 81.7644 45.9494C82.4039 45.7828 82.8751 45.8828 83.178 46.2493C83.4809 46.6159 83.6828 47.0491 83.8511 47.4823C83.9521 47.8155 84.053 48.0488 84.154 48.1487C85.1973 45.7495 86.5773 44.1834 88.2601 43.4503C89.9429 42.7172 91.996 42.9171 94.4529 44.1167C95.6309 44.7832 96.405 45.7162 96.8089 46.9158C97.1791 48.1154 97.2464 49.2484 96.9771 50.3147C96.7079 51.381 96.203 52.0474 95.4626 52.3473C94.7222 52.6139 93.7798 52.1474 92.7028 50.9478C92.3999 50.5479 92.1306 50.0481 91.895 49.4483C91.7267 49.0151 91.5248 48.6486 91.3565 48.3154C91.1546 47.9821 90.919 47.7822 90.6497 47.7155C89.5727 47.5822 88.7313 47.9488 88.0918 48.8485C87.4523 49.7482 86.9475 50.9145 86.5436 52.414C86.1398 53.9135 85.8032 55.4463 85.5339 57.0458C85.1974 59.0452 84.7935 60.8112 84.3223 62.2774C83.2116 62.1775 82.3029 61.7776 81.6634 61.0112C81.024 60.2448 80.6537 59.3451 80.5864 58.2454C80.5191 57.3457 80.5191 56.4793 80.5191 55.6129C80.5191 54.7132 80.4855 53.7802 80.4518 52.8472C80.4181 51.9142 80.1825 50.9145 79.9806 49.9148Z" fill="#F9BE40"/>
<path d="M165.938 63.8766C164.289 63.9432 163.01 63.3434 162.102 62.0439C161.193 60.7443 160.553 59.0115 160.183 56.8456C159.847 54.6796 159.678 52.2804 159.746 49.7146C158.399 49.7479 157.12 49.7146 155.942 49.6479C154.764 49.5813 153.856 49.4813 153.183 49.4146C152.88 49.3813 152.678 49.348 152.509 49.348C152.442 49.8479 152.409 50.3144 152.341 50.8475C152.072 53.2467 151.87 55.5793 151.735 57.8452C151.601 60.0778 151.601 62.1105 151.803 63.8766C150.053 63.9432 148.706 63.2434 147.798 61.8106C146.889 60.3777 146.283 58.5117 146.014 56.1458C145.745 53.7799 145.677 51.2807 145.812 48.5816C145.273 48.415 144.769 48.215 144.297 47.9818C144.701 47.6486 145.24 47.3487 145.913 47.0488C146.249 42.9501 146.721 39.3846 147.394 36.3189C148.033 33.2533 148.504 31.6871 148.807 31.5539C150.255 31.7538 151.298 32.5202 151.937 33.7864C152.577 35.0527 152.947 36.7188 153.048 38.7182C153.149 40.7175 153.115 42.9501 152.88 45.316C155.303 44.9828 157.693 44.7495 160.015 44.6162C160.385 40.6509 160.89 37.2186 161.529 34.3862C162.135 31.5538 162.573 30.0543 162.876 29.8877C164.188 29.8211 165.131 30.4875 165.736 31.7871C166.309 33.12 166.645 34.9194 166.746 37.152C166.847 39.3846 166.78 41.9171 166.612 44.6828C166.881 44.7495 167.015 44.8162 167.049 44.8828C167.318 46.0824 167.116 47.0488 166.41 47.7152C166.342 48.3816 166.309 49.0148 166.275 49.6812C166.073 52.347 165.905 54.8795 165.804 57.3454C165.703 59.8112 165.77 61.9772 165.938 63.8766Z" fill="#F9BE40"/>
<path d="M174.452 61.512C173.274 60.9788 172.298 60.1791 171.557 59.1461C170.817 58.1131 170.245 56.9468 169.841 55.6806C169.134 53.248 169.134 51.1154 169.875 49.2494C170.615 47.3833 171.759 45.9171 173.308 44.7508C174.856 43.6178 176.471 42.8514 178.154 42.5182C179.837 42.185 181.284 42.2849 182.496 42.8848C183.674 43.4512 184.313 44.5509 184.38 46.1837C184.347 48.0498 183.943 49.5493 183.169 50.6489C182.395 51.7485 181.452 52.5483 180.308 53.0814C179.197 53.6146 178.12 53.9478 177.077 54.1478C176.034 54.3144 175.26 54.4143 174.721 54.4476C174.385 54.4476 174.216 54.481 174.216 54.5143C174.553 55.8472 175.192 56.7136 176.101 57.1468C177.01 57.58 178.087 57.6133 179.298 57.2467C180.51 56.8802 182.126 55.9138 184.111 54.381C186.164 52.5816 187.544 51.1154 188.251 49.9491C188.958 48.7828 189.463 47.9164 189.698 47.25C190.001 46.4502 190.607 46.0171 191.516 45.9504C192.391 45.8838 193.098 46.4169 193.636 47.5499C193.737 47.8831 193.838 48.1164 193.973 48.2164C195.016 45.8171 196.362 44.251 198.045 43.5179C199.728 42.7848 201.781 42.9847 204.238 44.1843C205.416 44.8508 206.224 45.7838 206.594 46.9834C206.964 48.183 207.031 49.316 206.762 50.3823C206.493 51.4486 205.988 52.1151 205.248 52.415C204.507 52.6816 203.565 52.215 202.454 51.0154C202.151 50.6156 201.882 50.1157 201.646 49.5159C201.478 49.0827 201.276 48.7162 201.108 48.3829C200.906 48.0497 200.67 47.8498 200.435 47.7832C199.358 47.6499 198.516 48.0164 197.843 48.9161C197.204 49.8158 196.665 50.9821 196.295 52.4816C195.891 53.9811 195.554 55.514 195.285 57.1135C194.949 59.1128 194.545 60.8789 194.074 62.3451C192.963 62.2451 192.054 61.8452 191.415 61.0788C190.775 60.3124 190.405 59.4127 190.338 58.3131C190.27 57.4134 190.27 56.5469 190.27 55.6806C190.27 54.7809 190.237 53.8478 190.203 52.9148C188.015 56.1804 186.063 58.4463 184.313 59.7459C182.563 61.0455 180.813 61.8452 179.096 62.1451C177.38 62.445 175.764 62.2118 174.452 61.512ZM178.659 50.3156C179.871 49.316 180.443 48.5829 180.375 48.083C180.308 47.6165 179.871 47.4166 179.063 47.5166C178.255 47.6165 177.346 48.0497 176.37 48.7828C175.394 49.5159 174.553 50.6489 173.88 52.1151C174.721 52.1817 175.596 52.0151 176.505 51.5819C177.38 51.182 178.087 50.7488 178.659 50.3156Z" fill="#F9BE40"/>
<path d="M213.53 61.6108C211.712 60.7777 210.4 59.4115 209.592 57.6121C208.751 55.7794 208.481 53.8467 208.717 51.814C208.952 49.7813 209.794 47.9819 211.174 46.4824C212.688 44.9496 214.405 43.9166 216.323 43.3834C218.208 42.8503 219.857 42.8836 221.203 43.5167C222.886 44.4165 224.098 45.6827 224.872 47.3822C225.646 49.0816 225.949 50.881 225.848 52.8137C225.713 54.7464 225.175 56.5124 224.233 58.1119C223.257 59.7114 221.877 60.8777 220.093 61.6108C218.309 62.3439 216.088 62.3105 213.53 61.6108ZM214.943 49.5814C214.102 50.4145 213.664 51.3808 213.631 52.5471C213.597 53.7134 213.765 54.7797 214.237 55.7128C214.674 56.6458 215.28 57.2122 216.02 57.4122C216.828 57.5788 217.703 57.5121 218.612 57.2456C219.891 56.8457 220.732 56.1126 221.203 55.0463C221.641 53.9799 221.776 52.847 221.506 51.6807C221.035 49.748 220.227 48.6151 218.982 48.2152C217.737 47.8153 216.424 48.2818 214.943 49.5814Z" fill="#F9BE40"/>
<path d="M233.352 61.512C232.174 60.9788 231.198 60.1791 230.457 59.1461C229.717 58.1131 229.111 56.9468 228.707 55.6806C228 53.248 228.034 51.1154 228.774 49.2494C229.515 47.3833 230.659 45.9171 232.174 44.7508C233.722 43.6178 235.304 42.8514 237.02 42.5182C238.703 42.185 240.15 42.2849 241.362 42.8848C242.573 43.4512 243.179 44.5842 243.247 46.217C243.213 48.0831 242.809 49.5493 242.035 50.6489C241.261 51.7485 240.285 52.5483 239.174 53.0814C238.063 53.6146 236.986 53.9478 235.943 54.1478C234.9 54.3144 234.092 54.4143 233.553 54.4477C233.251 54.4477 233.082 54.481 233.082 54.5143C233.419 55.8472 234.058 56.6803 235.068 57.0135C236.044 57.3467 237.121 57.38 238.265 57.1135C239.41 56.8469 240.453 56.4137 241.328 55.8472C242.708 54.9475 244.021 53.9811 245.232 52.8815C246.444 51.7818 247.42 50.8821 248.16 50.149C248.228 50.0824 248.261 50.0491 248.329 49.9825C248.901 49.4493 249.305 49.416 249.54 49.8158C249.776 50.2157 249.574 51.1487 248.901 52.5482C248.261 53.8811 247.521 55.1807 246.612 56.5136C245.704 57.8465 244.66 59.0128 243.415 60.0125C242.17 61.0122 240.722 61.6786 239.073 62.0119C237.424 62.3451 235.539 62.2118 233.352 61.512ZM237.559 50.3156C238.77 49.316 239.342 48.5829 239.275 48.083C239.208 47.6165 238.77 47.4166 237.963 47.5166C237.155 47.6165 236.246 48.0497 235.27 48.7828C234.294 49.5159 233.453 50.6489 232.779 52.1151C233.621 52.1817 234.496 52.0151 235.405 51.5819C236.313 51.182 237.02 50.7488 237.559 50.3156Z" fill="#F9BE40"/>
<path d="M257.179 48.2151C256.607 47.3821 255.833 47.0821 254.823 47.2488C253.814 47.4154 252.939 47.9152 252.131 48.715C251.323 49.5147 250.986 50.5144 251.087 51.6473C251.188 52.7803 252.03 53.9466 253.679 55.1129C255.261 55.3461 256.876 55.2462 258.559 54.813C260.208 54.3798 262.497 52.8136 265.391 50.1145C265.728 49.8479 265.93 50.0478 265.997 50.681C266.031 51.3141 265.728 52.3138 265.089 53.6134C264.449 54.9463 263.473 56.0126 262.16 56.8123C260.848 57.612 259.03 58.2118 256.742 58.5784C257.213 59.3781 257.28 60.2445 256.91 61.2109C256.573 62.1772 255.833 62.977 254.756 63.6101C253.679 64.2432 252.434 64.6765 251.054 64.8764C249.674 65.0763 248.361 64.9763 247.116 64.5764C245.433 63.9433 244.457 63.077 244.221 61.944C243.986 60.811 244.289 59.7114 245.164 58.6117C246.039 57.5121 247.352 56.679 249.102 56.1459C248.159 55.4794 247.419 54.713 246.847 53.8466C245.972 52.4137 245.702 50.9142 245.938 49.2814C246.174 47.6486 247.049 46.2491 248.496 45.0495C249.977 43.9165 251.626 43.1168 253.41 42.7169C255.194 42.317 256.742 42.317 258.054 42.7502C259.367 43.1834 260.04 44.0498 260.107 45.416C260.074 45.9158 259.939 46.549 259.67 47.3154C259.401 48.0818 259.064 48.615 258.627 48.9149C258.223 49.2814 257.718 49.0482 257.179 48.2151ZM251.559 59.2115C250.381 59.3115 249.304 59.5781 248.361 60.0113C247.419 60.4445 247.015 60.8777 247.15 61.3109C247.284 61.744 247.621 62.0439 248.227 62.2439C248.832 62.4438 249.472 62.3772 250.246 62.0773C250.953 61.8107 251.458 61.3775 251.794 60.811C252.097 60.2112 252.03 59.678 251.559 59.2115Z" fill="#F9BE40"/>
<path d="M14.4847 27.0222C13.7779 28.2885 13.374 29.588 13.273 30.8876C13.1047 33.0869 13.8452 35.5195 15.4944 38.2186C17.1435 40.9177 20.0716 43.7168 24.245 46.5825C27.3078 48.6818 29.1925 50.4479 29.933 51.8807C30.6734 53.3136 30.6061 54.4466 29.7984 55.2796C28.3175 56.8458 26.7693 57.7455 25.1201 57.9454C23.471 58.1454 21.9564 57.8121 20.5092 56.9791C19.0619 56.146 17.884 54.9797 16.9416 53.4802C15.9992 51.9807 15.4944 50.3146 15.3934 48.5152C13.374 50.4479 12.3306 52.3473 12.297 54.18C12.2633 56.046 12.7682 57.7122 13.8788 59.245C14.9895 60.7445 16.2685 61.9441 17.7157 62.8438C20.1389 64.3433 22.9324 65.0764 26.0288 64.9765C29.1589 64.8765 32.188 63.8768 35.1497 61.9774C37.775 60.2113 39.2895 58.3786 39.727 56.5125C40.1646 54.6465 39.8616 52.7804 38.8183 50.9477C37.7749 49.0817 36.3614 47.2823 34.544 45.5495C32.7265 43.8167 30.8754 42.1839 29.0243 40.6844C27.2405 39.2182 25.7259 37.8853 24.5816 36.719C22.8651 34.8863 21.7208 33.2202 21.1823 31.7207C20.6438 30.2212 20.9467 29.0882 22.0574 28.3551C23.168 27.622 25.2884 27.522 28.4858 28.1218C29.832 28.3884 30.9764 28.9549 31.9524 29.788C32.8948 30.6543 33.7025 31.5874 34.3757 32.6537C35.0151 33.72 35.5536 34.6864 35.9912 35.5528C36.395 36.4192 36.7653 37.0523 37.0682 37.4521C37.3711 37.852 37.674 37.8187 37.9432 37.3855C40.1982 33.5534 40.8041 30.2545 39.6934 27.5554C38.8856 25.5227 37.3374 23.9566 35.0488 22.7903C30.4715 24.1232 25.9952 25.0895 24.3124 25.4227C20.8794 26.0892 17.5474 26.6224 14.4847 27.0222Z" fill="#F9BE40"/>
<path d="M31.8186 14.6918C32.2225 15.225 32.5927 15.6249 32.7946 15.9248C32.9965 16.158 33.0638 16.4912 32.9965 16.7911C32.9292 17.091 32.7273 17.3243 32.4244 17.4576C32.2561 17.5242 28.3856 19.257 23.4044 20.2566C20.4427 20.8564 17.7838 21.1563 15.4952 21.1563C13.6441 21.1563 12.7017 20.9564 12.6007 20.9231C12.0622 20.7898 11.7256 20.2567 11.8603 19.7235C11.9276 19.3903 11.9949 19.0904 12.0958 18.7571C4.65776 20.9231 -0.289735 23.3223 0.0131737 24.8551C0.450708 27.0211 11.1871 26.6879 24.0103 24.0887C25.5921 23.7555 27.174 23.4223 28.6549 23.0557H28.6885C30.1694 22.6892 31.6166 22.3226 32.9629 21.9561C41.1414 19.6902 46.6947 17.1244 46.3582 15.4916C46.0553 13.8921 40.0981 13.6588 31.8186 14.6918Z" fill="#F9BE40"/>
<path d="M31.8865 16.3917C31.8865 16.3917 31.8865 16.3584 31.8865 16.3917C31.7856 16.2584 31.6846 16.1584 31.5836 15.9918C31.5163 15.8918 31.4153 15.7919 31.348 15.6919C31.2807 15.6252 31.2471 15.5586 31.1798 15.492C31.0451 15.3254 30.9105 15.1587 30.7422 14.9588C30.7086 14.9255 30.7085 14.8922 30.6749 14.8588C27.5448 10.9601 19.8375 1.52987 18.3229 0.763459C16.3709 -0.202891 13.1398 -0.936009 12.3321 3.02936C11.5243 6.99473 11.9955 7.59457 10.4473 8.42763C8.89911 9.26069 5.16321 10.0937 6.40851 12.5263C7.6538 14.9255 9.63955 13.3926 10.3127 13.1261C11.558 12.6262 13.4764 11.7599 14.4525 10.4936C15.2939 9.39396 15.4285 9.32733 15.7314 7.96112C15.7314 7.96112 15.8997 9.56059 15.1592 10.4603C15.0919 10.5269 12.8706 19.9239 12.8706 19.9239C12.8706 19.9239 12.9379 19.9238 13.0389 19.9572C13.0725 19.9572 13.1062 19.9572 13.1398 19.9572C13.2408 19.9572 13.3418 19.9905 13.51 20.0238C13.5774 20.0238 13.6783 20.0238 13.7456 20.0571C13.9139 20.0904 14.0822 20.0905 14.3178 20.0905C14.4524 20.0905 14.5871 20.0905 14.7217 20.0905C14.9573 20.0905 15.1592 20.1238 15.4621 20.1238C15.4958 20.1238 15.4958 20.1238 15.5295 20.1238C15.7314 20.1238 15.967 20.1238 16.2026 20.0905C16.4382 20.0905 16.6401 20.0904 16.8757 20.0571C17.1786 20.0571 17.5488 20.0238 17.8854 19.9905C18.1547 19.9572 18.3566 19.9572 18.6259 19.9239C19.0634 19.8905 19.5346 19.8239 20.0394 19.7572C20.275 19.7239 20.477 19.6906 20.7462 19.6573C21.5203 19.5573 22.3281 19.3907 23.2032 19.2241C24.4484 18.9908 25.5928 18.6909 26.6698 18.391C29.8335 17.4913 32.0212 16.4916 32.0212 16.4916C32.0212 16.4916 31.9875 16.4917 31.8865 16.3917Z" fill="#F9BE40"/>
<path d="M111.245 3.09587C111.859 3.09587 112.356 2.60354 112.356 1.99624C112.356 1.38893 111.859 0.896606 111.245 0.896606C110.632 0.896606 110.135 1.38893 110.135 1.99624C110.135 2.60354 110.632 3.09587 111.245 3.09587Z" fill="#F9BE40"/>
<path d="M180.376 5.46191C180.989 5.46191 181.486 4.96957 181.486 4.36224C181.486 3.75492 180.989 3.26257 180.376 3.26257C179.762 3.26257 179.265 3.75492 179.265 4.36224C179.265 4.96957 179.762 5.46191 180.376 5.46191Z" fill="#F9BE40"/>
<path d="M66.8206 18.5245C67.434 18.5245 67.9313 18.0322 67.9313 17.4248C67.9313 16.8175 67.434 16.3252 66.8206 16.3252C66.2072 16.3252 65.71 16.8175 65.71 17.4248C65.71 18.0322 66.2072 18.5245 66.8206 18.5245Z" fill="#F9BE40"/>
<path d="M251.967 30.9874C252.58 30.9874 253.077 30.4951 253.077 29.8878C253.077 29.2804 252.58 28.7881 251.967 28.7881C251.353 28.7881 250.856 29.2804 250.856 29.8878C250.856 30.4951 251.353 30.9874 251.967 30.9874Z" fill="#F9BE40"/>
<path d="M123.732 19.4579C124.866 19.4579 125.785 18.5479 125.785 17.4252C125.785 16.3026 124.866 15.3926 123.732 15.3926C122.598 15.3926 121.679 16.3026 121.679 17.4252C121.679 18.5479 122.598 19.4579 123.732 19.4579Z" fill="#F9BE40"/>
<path d="M156.919 17.4251C158.927 17.4251 160.554 15.8138 160.554 13.8263C160.554 11.8387 158.927 10.2274 156.919 10.2274C154.912 10.2274 153.284 11.8387 153.284 13.8263C153.284 15.8138 154.912 17.4251 156.919 17.4251Z" fill="#F9BE40"/>
<path d="M54.9052 10.2276C56.225 10.2276 57.2949 9.1684 57.2949 7.86176C57.2949 6.55512 56.225 5.49585 54.9052 5.49585C53.5855 5.49585 52.5156 6.55512 52.5156 7.86176C52.5156 9.1684 53.5855 10.2276 54.9052 10.2276Z" fill="#F9BE40"/>
<path d="M236.012 24.8558C237.202 24.8558 238.166 23.901 238.166 22.7232C238.166 21.5454 237.202 20.5906 236.012 20.5906C234.823 20.5906 233.858 21.5454 233.858 22.7232C233.858 23.901 234.823 24.8558 236.012 24.8558Z" fill="#F9BE40"/>
<path d="M188.117 29.5879C189.307 29.5879 190.271 28.6331 190.271 27.4553C190.271 26.2774 189.307 25.3226 188.117 25.3226C186.927 25.3226 185.963 26.2774 185.963 27.4553C185.963 28.6331 186.927 29.5879 188.117 29.5879Z" fill="#F9BE40"/>
<path d="M91.9286 20.1906C93.2748 18.8577 94.7558 11.86 94.7558 11.86C94.7558 11.86 95.7991 18.6244 97.1117 20.1906C98.3233 21.6234 105.761 22.6231 105.761 22.6231C105.761 22.6231 98.7945 23.5894 97.4483 24.8557C95.9674 26.2552 94.8567 33.5528 94.8567 33.5528C94.8567 33.5528 93.2412 26.4552 91.9623 24.989C90.616 23.4229 83.8174 22.7564 83.8174 22.7564C83.8174 22.7564 90.6833 21.4568 91.9286 20.1906Z" fill="#F9BE40"/>
<path d="M214.338 9.36063C215.684 8.02774 217.165 1.03003 217.165 1.03003C217.165 1.03003 218.209 7.79448 219.521 9.36063C220.733 10.7935 228.171 11.7932 228.171 11.7932C228.171 11.7932 221.204 12.7595 219.858 14.0258C218.377 15.4253 217.266 22.7229 217.266 22.7229C217.266 22.7229 215.651 15.6253 214.372 14.1591C213.025 12.5929 206.227 11.9264 206.227 11.9264C206.227 11.9264 213.093 10.5936 214.338 9.36063Z" fill="#F9BE40"/>
</svg>
