<svg width="60" height="60" viewBox="0 0 60 60" fill="none" xmlns="http://www.w3.org/2000/svg">
<path d="M30 60C46.5685 60 60 46.5685 60 30C60 13.4315 46.5685 0 30 0C13.4315 0 0 13.4315 0 30C0 46.5685 13.4315 60 30 60Z" fill="url(#paint0_radial)"/>
<path d="M6.33876 30.1426C4.50548 32.3093 3.83879 34.1427 4.33883 34.976C4.53419 35.1682 4.7709 35.3132 5.03083 35.3998C5.29087 35.4865 5.56719 35.5125 5.83883 35.476C7.13821 35.6175 8.45258 35.4461 9.67215 34.976C11.1245 33.6952 12.8271 32.7304 14.6722 32.1427C16.8317 31.4987 19.0944 31.2724 21.3388 31.476L20.5054 30.6427C20.0759 30.2967 19.6848 29.9056 19.3388 29.476C18.5171 29.74 17.6827 29.9624 16.8388 30.1426C14.8388 30.6427 13.1722 30.6427 12.8388 30.8093C10.6494 31.0282 8.43829 30.8015 6.33876 30.1426Z" fill="#7A5849" stroke="#3E254A" stroke-width="0.25" stroke-miterlimit="10"/>
<path d="M8.97141 28.4507C10.2456 28.3289 11.5239 28.3289 12.798 28.4507C14.1278 28.3296 15.4614 28.3296 16.7911 28.4507C17.623 28.6916 19.4531 28.9326 19.4531 29.4146C19.4531 30.1375 17.9557 30.8605 17.2902 31.1015C14.2514 32.8272 10.8854 32.9127 7.80668 31.3424C7.30758 31.1015 5.97656 30.1375 5.97656 29.4146C6.92215 28.8146 7.93934 28.4871 8.97141 28.4507Z" fill="#9B705C" stroke="#3D2747" stroke-width="0.25" stroke-miterlimit="10"/>
<path d="M13.0062 29.3088C18.0689 29.3088 22.1729 25.354 22.1729 20.4755C22.1729 15.5969 18.0689 11.6422 13.0062 11.6422C7.94362 11.6422 3.8396 15.5969 3.8396 20.4755C3.8396 25.354 7.94362 29.3088 13.0062 29.3088Z" fill="#44C0C9" stroke="#2B3552" stroke-width="0.25" stroke-miterlimit="10"/>
<path opacity="0.42" d="M13.0062 12.1416C14.8701 12.0896 16.6837 12.7502 18.0772 13.989C19.4708 15.2277 20.3395 16.9513 20.5062 18.8083C20.5421 19.8108 20.3738 20.8099 20.0117 21.7452C19.6496 22.6806 19.1012 23.5325 18.3998 24.2495C17.6984 24.9664 16.8587 25.5335 15.9316 25.916C15.0044 26.2986 14.0091 26.4888 13.0062 26.4751C12.0075 26.4745 11.0186 26.2747 10.098 25.8872C9.17738 25.4995 8.34336 24.9321 7.64492 24.2181C6.94636 23.504 6.39734 22.6578 6.03019 21.7289C5.66293 20.7999 5.4848 19.807 5.50625 18.8083C5.75363 16.9843 6.64601 15.3091 8.02179 14.0863C9.39758 12.8633 11.1658 12.1735 13.0062 12.1416Z" fill="white"/>
<path opacity="0.85" d="M17.0053 19.8095C17.9258 19.8095 18.6719 19.0633 18.6719 18.1428C18.6719 17.2223 17.9258 16.4762 17.0053 16.4762C16.0848 16.4762 15.3386 17.2223 15.3386 18.1428C15.3386 19.0633 16.0848 19.8095 17.0053 19.8095Z" fill="white"/>
<path d="M13.0062 18.1428C13.4664 18.1428 13.8395 17.7697 13.8395 17.3095C13.8395 16.8492 13.4664 16.4762 13.0062 16.4762C12.546 16.4762 12.1729 16.8492 12.1729 17.3095C12.1729 17.7697 12.546 18.1428 13.0062 18.1428Z" fill="white"/>
<path d="M15.1562 21.4761C15.6164 21.4761 15.9895 21.103 15.9895 20.6428C15.9895 20.1826 15.6164 19.8094 15.1562 19.8094C14.6959 19.8094 14.3229 20.1826 14.3229 20.6428C14.3229 21.103 14.6959 21.4761 15.1562 21.4761Z" fill="white"/>
<path d="M14.1213 31.1131C15.5274 30.2928 18.047 29.2967 19.8048 29.4139C22.1485 29.3553 24.1993 31.1717 24.3165 30.9959C25.3712 28.6522 27.7735 28.242 30.7766 27.3293C32.4417 27.2247 34.1116 27.2247 35.7766 27.3293H39.11C41.2766 29.1625 43.7767 31.1626 46.61 33.1625C49.2766 34.9959 51.9433 36.6625 54.2767 38.1625C54.3149 39.1141 54.4263 40.0614 54.6099 40.9959C54.8928 42.012 55.2266 43.0133 55.61 43.9959C52.2766 43.8293 49.4521 44.1795 47.2854 44.1795C45.3054 44.0779 43.4741 44.5823 41.6018 45.2342C39.904 46.0529 38.6135 47.4022 37.2766 48.4959C34.9221 48.4959 32.6044 48.5571 30.2346 48.9842C28.3029 49.5815 26.3301 49.9332 24.6099 50.9959C21.9728 52.625 19.1603 54.785 16.4433 55.9959C14.7766 52.9959 13.2766 49.3292 11.4433 46.3292C9.77659 43.4959 8.34655 40.6353 6.67991 37.9686C6.51315 37.6353 6.50413 37.5584 6.44319 37.1483C6.38682 35.9764 11.7774 32.285 14.1213 31.1131Z" fill="#E3C09E"/>
<path opacity="0.76" d="M14.1118 31.1329C15.996 30 17.0507 29.7657 18.6118 29.4661C20.7956 29.0472 23.5546 30.4102 24.4452 31.1329C24.5507 29.3555 27.5389 28.0079 30.7786 27.4662C32.4436 27.3617 34.1135 27.3617 35.7785 27.4662H39.1119C41.2786 29.2995 43.8657 31.1641 46.6991 33.1641C49.3658 34.9974 51.8072 36.586 54.1405 38.086C54.2577 39.0235 54.4282 40.1984 54.6118 41.1329C54.8947 42.149 55.2285 43.1502 55.6119 44.1329C52.2785 43.9662 49.4453 44.1329 47.2786 44.1329C45.2986 44.0313 43.4761 44.6607 41.6037 45.3126C39.906 46.1313 38.6154 47.5391 37.2785 48.6329C34.8654 48.6329 32.4891 48.6354 30.1193 49.0626C28.1876 49.6599 26.332 50.0702 24.6118 51.1328C21.6985 52.4652 18.9566 54.1439 16.4453 56.1329C14.7785 53.1329 13.2785 49.4662 11.4452 46.4662C9.77858 43.6328 8.46339 40.5183 6.79675 37.8516C6.63011 37.5183 6.38659 37.2657 6.44518 37.0899C6.44518 36.0899 10.5467 33.0469 14.1118 31.1329Z" fill="url(#paint1_radial)"/>
<path d="M6.94336 38.3297V37.9963" stroke="#4D3752" stroke-width="0.25" stroke-miterlimit="10"/>
<path d="M6.49221 38.6139C6.6435 38.3641 6.70245 38.0693 6.65897 37.7805C6.65897 37.4473 6.56252 37.4414 6.44534 37.2656C6.2787 36.7656 7.44143 35.7422 8.14456 35.0977" stroke="#4D3752" stroke-width="0.25" stroke-miterlimit="10"/>
<path d="M7.94275 35.3299C9.2699 34.1224 10.7226 33.0608 12.2761 32.1632C14.7761 30.6632 17.6094 28.9965 20.7761 29.4965C22.104 29.7818 23.1445 30.293 24.3164 31.0548" stroke="#4D3752" stroke-width="0.25" stroke-miterlimit="10"/>
<path d="M24.3164 31.0546C24.375 30.703 24.6091 30.4963 24.9424 29.9964C25.3429 29.494 25.8571 29.0941 26.4424 28.8296C27.8166 28.1826 29.2755 27.7337 30.7758 27.4963C33.5992 27.1604 36.4525 27.1604 39.2757 27.4963C44.1797 31.7577 48.8672 34.6874 54.1406 38.0858" stroke="#4D3752" stroke-width="0.25" stroke-miterlimit="10"/>
<path d="M54.1407 38.0859C48.3073 39.2527 40.1101 38.4967 36.1101 44.6634" stroke="#4D3657" stroke-width="0.25" stroke-miterlimit="10"/>
<path d="M24.3164 31.0547C26.1497 32.888 27.7758 34.6628 29.7758 36.9961C31.7757 39.4961 33.6068 41.8372 35.2734 44.0039" stroke="#4D3752" stroke-width="0.25" stroke-miterlimit="10"/>
<path d="M7.94275 35.3303C10.9427 40.497 14.1095 45.8303 17.1095 50.997" stroke="#4D3752" stroke-width="0.25" stroke-miterlimit="10"/>
<path d="M17.1094 50.9766C19.1094 51.8099 21.888 47.8047 26.0546 45.8047C28.8489 44.4524 32.0159 43.8068 35.0977 44.1797" stroke="#4D3752" stroke-width="0.25" stroke-miterlimit="10"/>
<path d="M17.1094 50.9766C16.9427 51.9765 16.9425 52.8301 16.7758 53.8301" stroke="#4D3752" stroke-width="0.25" stroke-miterlimit="10"/>
<path d="M54.5507 40.7373L54.1406 38.1006C54.5331 38.0714 55.1367 38.5693 55.6054 39.2138C56.3159 40.1907 56.5429 41.1914 56.6097 41.6783C56.6872 42.2436 56.7773 42.8463 56.7773 43.4765L56.7187 44.0625L56.6097 45.0117H54.9431C47.2763 45.1783 43.443 45.1783 40.443 47.1784C39.1545 48.3096 37.6101 49.1104 35.943 49.5117C34.9967 49.6404 34.0343 49.5838 33.1096 49.345C31.7764 49.1783 29.943 49.5117 22.943 53.8451C18.7763 56.5117 17.7763 57.5117 16.443 57.0117C15.1096 56.5117 15.1096 55.1783 13.7764 52.5117C11.1097 46.5117 5.77634 41.1784 6.27638 38.845C6.27638 38.6783 6.44302 37.845 6.60966 37.845C6.7763 37.845 6.7763 38.1784 6.7763 38.345H7.1097C10.1097 44.0117 13.2763 49.345 16.443 54.845C16.6096 54.5117 16.5202 53.802 16.6096 53.6783C16.6992 53.5547 16.7231 53.5666 16.8163 53.5547C17.0267 53.5278 17.1097 54.0117 17.1097 54.0117C17.2763 54.6784 16.7764 55.5117 16.943 55.6783C22.2763 52.6783 26.2763 48.345 34.443 48.5117C34.2763 46.6783 35.2763 45.845 35.7763 44.845C35.5414 44.8698 35.2268 44.8541 35.1562 44.707C35.0855 44.5599 35.1097 44.345 35.1097 44.345C35.1097 44.1784 35.1097 44.1784 35.1097 44.1784L35.2763 44.0117C35.7763 44.0117 36.166 44.4335 36.2764 44.5117C36.3867 44.5898 36.4138 44.591 36.443 44.6783C36.4635 44.74 36.443 44.845 36.443 44.845C36.2764 45.5117 35.943 45.5117 35.943 46.1783C36.6097 46.1783 36.9431 45.6784 37.7764 45.845C38.2763 46.0117 38.2763 46.845 38.6097 47.345C41.4431 43.345 49.3216 44.1266 55.4882 43.9599C55.2586 43.5538 54.9883 42.8906 54.8437 42.3633C54.6679 41.7222 54.6679 41.3818 54.5507 40.7373Z" fill="#42294D" stroke="#472D52" stroke-width="0.25" stroke-miterlimit="10"/>
<path d="M6.73543 38.6371L6.41211 38.5563C6.37168 38.0308 6.37168 37.1983 6.53329 37.2387C6.68258 37.5889 6.53329 37.2387 6.68258 37.5889L6.79696 37.793C7.14852 38.379 7.26571 38.4376 7.05887 38.718C7.05395 38.7395 7.04481 38.7598 7.0318 38.7776C7.01891 38.7954 7.0025 38.8104 6.98364 38.8218C6.96477 38.8331 6.94379 38.8406 6.922 38.8435C6.9002 38.8465 6.87793 38.8451 6.85672 38.8393L6.73543 38.6371Z" fill="#42294D"/>
<path opacity="0.47" d="M7.91027 35.332L17.1095 50.9766L16.8751 53.0273L16.5821 55.0195C12.5578 48.2115 10.2673 44.1735 6.44542 37.2656C6.31007 37.0008 7.02117 36.1086 7.91027 35.2734V35.332Z" fill="#070B14" stroke="#09002E" stroke-width="0.25" stroke-miterlimit="10"/>
<path opacity="0.44" d="M16.4091 55.2972L17.1094 50.9765C17.1094 50.9765 18.1055 51.8719 21.7188 48.6593C24.2579 46.6406 25.8399 45.6445 28.711 44.7656C30.6446 44.1737 33.1055 43.9453 35.0977 44.1797C35.8008 45.5859 36.8555 43.4179 37.4415 43.0078C38.1723 42.3473 38.5352 41.9406 39.375 41.4258C40.4883 40.7435 41.9532 40.1563 43.0079 39.8437C44.5899 39.375 47.9972 38.882 48.6329 38.8476C49.2774 38.7304 53.604 38.2712 54.1407 38.0859C54.4359 38.0369 54.961 38.4961 55.1368 38.6718C55.3711 38.9648 55.6259 39.2997 55.7813 39.5508C56.5803 40.8413 56.836 42.4804 56.7774 43.4179C56.7371 44.0625 56.6015 44.2576 56.543 44.8828C53.9669 44.897 52.0313 45 49.7842 45.0972C47.5717 45.0222 42.9938 45.3468 41.0438 46.6593C39.5385 47.8483 37.8351 48.7623 36.0121 49.3591C34.762 49.4806 33.5007 49.4175 32.2688 49.1718C30.9563 48.9468 26.5788 51.3718 25.6788 51.8719C24.7788 52.3718 21.0188 54.6843 19.8938 55.5468C18.7688 56.4093 16.0623 57.6638 16.4091 55.2972Z" fill="#070B14"/>
<path d="M28.7183 31.341C28.2613 30.4361 28.0317 29.4333 28.0494 28.4198C28.0495 27.4396 28.3056 26.4765 28.7924 25.6257C29.4536 24.6237 30.4424 23.8828 31.5896 23.5294C33.9894 22.5728 35.1039 23.4496 36.8786 22.3839C39.0626 22.0263 41.303 22.2806 43.3512 23.1187C43.639 23.3522 44.0484 24.048 44.6626 24.0331C45.3444 24.0165 46.3988 23.6215 46.7605 24.2895C47.1492 24.8934 47.6187 25.4413 48.1557 25.9182C48.8435 26.6488 48.723 26.5986 49.5382 27.4972C50.2363 28.3322 51.002 29.1086 51.8273 29.8182C53.4081 31.0522 54.4481 30.8903 54.6248 31.6707C54.816 32.5149 53.8045 33.4826 53.2261 33.9132C52.8577 34.16 52.4434 34.3304 52.0079 34.414C51.5725 34.4978 51.1246 34.4933 50.691 34.4007C49.842 34.2763 49.0334 33.9569 48.3286 33.4673C47.2389 32.7606 47.1043 32.2304 46.2325 31.9631C45.662 31.8054 45.0584 31.8136 44.4923 31.9866C41.3493 32.7683 39.035 34.2814 36.1792 34.6931C34.4027 35.0769 32.547 34.7812 30.9778 33.8643C30.0043 33.25 29.2219 32.3761 28.7183 31.341Z" fill="#4359B5" stroke="url(#paint2_linear)" stroke-width="0.25" stroke-miterlimit="10"/>
<path d="M38.0307 18.7611C38.7905 17.2748 39.1667 16.3904 40.1699 14.6141C40.1699 14.614 42.3628 10.6966 44.3166 10.0819C44.5543 10.0096 44.8039 9.98579 45.0509 10.0118C45.3724 10.0628 45.6734 10.202 45.9206 10.414C46.6688 11.0214 46.8575 12.1259 47.6548 13.4647C48.4646 14.8243 49.2471 15.4603 49.1629 16.3712C49.149 16.6062 49.0618 16.8308 48.9138 17.0139C48.832 17.1102 48.7279 17.1853 48.6107 17.2329C48.4937 17.2804 48.3666 17.2989 48.2408 17.2867C47.2978 17.274 45.8408 15.4242 45.6882 15.2278L45.7584 16.1657C45.8991 18.0428 46.0913 20.3714 46.5337 23.0223C46.6869 23.94 46.9205 25.1939 47.2749 26.6776C46.5325 27.5484 46.9324 29.7329 40.3541 29.6126C38.2767 29.5746 34.7721 27.4546 34.3816 25.3071L35.0446 24.105C35.7677 22.7939 36.875 21.0216 38.0307 18.7611Z" fill="#4359B5" stroke="url(#paint3_linear)" stroke-width="0.25" stroke-miterlimit="10"/>
<path opacity="0.56" d="M45.9472 15.7725C46.1709 16.1832 46.074 16.0683 46.6807 16.7157C46.8827 16.9313 47.9469 17.878 48.8484 17.3479C49.0009 17.235 49.125 17.0881 49.2106 16.9189C49.2963 16.7495 49.3412 16.5626 49.3418 16.3729C49.3282 16.1179 48.8318 16.0097 47.9108 15.1916C47.1175 14.487 46.8741 14.1993 46.4295 13.7646C45.6425 12.9953 45.6896 12.2997 45.3233 12.3604C45.0706 12.4023 44.8068 12.8898 44.7575 13.0461C44.2152 14.9821 43.7927 16.9497 43.4925 18.9378C43.2598 20.5562 42.9003 22.1541 42.4174 23.7163C41.9772 25.345 41.4471 26.9479 40.8291 28.5178C41.9887 28.9798 42.9801 29.5967 43.0364 30.402C43.1277 31.71 40.7089 32.9051 40.8331 33.1645C40.9743 33.4594 44.0471 31.324 46.3958 32.2649C47.7346 32.8011 47.2027 33.4527 49.0828 34.1978C50.4161 34.7262 50.8006 34.6592 50.9947 34.6289C51.637 34.6936 52.285 34.5897 52.8748 34.3272C53.4645 34.0648 53.9756 33.653 54.3575 33.1325C54.5843 32.9214 54.7416 32.6464 54.8087 32.3438C54.8758 32.0413 54.8493 31.7255 54.733 31.4384C54.5105 30.8984 53.8198 30.8296 52.7484 30.2103C52.1602 29.8536 51.6186 29.4254 51.1359 28.9353C50.6704 28.4889 50.2301 28.017 49.8171 27.5218C49.2229 26.8475 48.9964 26.5653 48.4671 25.9826C47.8857 25.3425 46.9628 24.3052 46.9421 24.2194C46.3999 21.4326 46.0673 18.6091 45.9472 15.7725Z" fill="url(#paint4_linear)"/>
<path d="M45.503 15.6893C45.433 14.8771 45.409 14.0618 45.431 13.2469C45.6378 14.0354 45.8 14.8348 45.9169 15.6416L45.503 15.6893Z" fill="#2C252E"/>
<path d="M34.3816 25.3067C34.3816 25.3067 34.9646 28.8716 40.3541 29.6121C46.4207 30.4457 47.2749 26.6772 47.2749 26.6772L47.018 25.5584C47.018 25.5584 46.091 29.0738 41.0098 28.518C39.6991 28.3973 38.4509 27.9014 37.4145 27.0899C36.3781 26.2785 35.5973 25.1856 35.1657 23.9421L34.3816 25.3067Z" fill="url(#paint5_linear)" stroke="url(#paint6_linear)" stroke-width="0.25" stroke-miterlimit="10"/>
<path opacity="0.17" d="M29.2383 32.2266C29.2383 32.2266 31.954 36.9766 38.5035 35.0945C43.7966 33.5734 43.779 32.9241 45.3826 33.0413C46.9862 33.1584 49.2273 34.65 51.1762 34.6257C51.5106 34.6606 51.848 34.6033 52.1521 34.4601L49.9173 33.1675C49.9173 33.1675 48.0184 32.0196 47.0582 31.4088C45.894 30.6681 44.1901 31.0654 40.0005 32.491C35.8109 33.9165 31.1862 33.8836 29.2383 32.2266Z" fill="black"/>
<defs>
<radialGradient id="paint0_radial" cx="0" cy="0" r="1" gradientUnits="userSpaceOnUse" gradientTransform="translate(30 30) rotate(90) scale(30)">
<stop stop-color="white" stop-opacity="0.8"/>
<stop offset="1" stop-color="white" stop-opacity="0"/>
</radialGradient>
<radialGradient id="paint1_radial" cx="0" cy="0" r="1" gradientUnits="userSpaceOnUse" gradientTransform="translate(30.833 37.5) rotate(-19.5917) scale(16.206)">
<stop stop-color="#ECAF7C"/>
<stop offset="0.0001" stop-color="#EDD2BA"/>
<stop offset="1" stop-color="#EDE4D9"/>
</radialGradient>
<linearGradient id="paint2_linear" x1="27.8398" y1="28.5074" x2="54.8569" y2="28.5074" gradientUnits="userSpaceOnUse">
<stop offset="0.00559" stop-color="#4D4252"/>
<stop offset="0.69474" stop-color="#3B323E"/>
<stop offset="1" stop-color="#312933"/>
</linearGradient>
<linearGradient id="paint3_linear" x1="34.1633" y1="19.8094" x2="49.3775" y2="19.8094" gradientUnits="userSpaceOnUse">
<stop offset="0.00559" stop-color="#4D4252"/>
<stop offset="0.97498" stop-color="#3C313E"/>
<stop offset="1" stop-color="#3B313D"/>
</linearGradient>
<linearGradient id="paint4_linear" x1="32.2042" y1="24.48" x2="45.355" y2="23.683" gradientUnits="userSpaceOnUse">
<stop stop-color="#E9C2FF" stop-opacity="0"/>
<stop offset="1" stop-opacity="0.6"/>
</linearGradient>
<linearGradient id="paint5_linear" x1="34.49" y1="27.0948" x2="47.2533" y2="26.3213" gradientUnits="userSpaceOnUse">
<stop stop-color="#F9BE40"/>
<stop offset="0.09986" stop-color="#F9BE40"/>
<stop offset="0.30214" stop-color="#F9BE40"/>
<stop offset="0.58605" stop-color="#576070"/>
<stop offset="0.70327" stop-color="#4B3E52"/>
</linearGradient>
<linearGradient id="paint6_linear" x1="34.266" y1="26.9506" x2="47.4567" y2="26.1511" gradientUnits="userSpaceOnUse">
<stop stop-color="#4E3C57"/>
<stop offset="0.33673" stop-color="#3E3244"/>
<stop offset="0.70327" stop-color="#29242B"/>
</linearGradient>
</defs>
</svg>
