<svg width="80" height="80" viewBox="0 0 80 80" fill="none" xmlns="http://www.w3.org/2000/svg">
<path d="M72 40C72 57.6732 57.6732 72 40 72C22.3268 72 8 57.6732 8 40C8 22.3268 22.3268 8 40 8C57.6732 8 72 22.3268 72 40Z" fill="white"/>
<path d="M40 80C17.9089 80 0 62.0911 0 40C0 17.9089 17.9089 0 40 0C62.0911 0 80 17.9089 80 40C79.9753 62.0807 62.0807 79.9753 40 80ZM40 2.66667C19.3815 2.66667 2.66667 19.3815 2.66667 40C2.66667 60.6185 19.3815 77.3333 40 77.3333C60.6185 77.3333 77.3333 60.6185 77.3333 40C77.3099 19.3913 60.6087 2.6901 40 2.66667Z" fill="#F9BE40"/>
<path d="M22.6667 24H57.3334V56H22.6667V24Z" fill="#FFAE00"/>
<g opacity="0.5">
<path d="M33.3333 37.3333L40 45.3333L45.3333 42.6666L52 50.6666H28L33.3333 37.3333Z" fill="white"/>
<path d="M52.0001 32C52.0001 33.4726 50.8061 34.6666 49.3334 34.6666C47.8608 34.6666 46.6667 33.4726 46.6667 32C46.6667 30.5273 47.8608 29.3333 49.3334 29.3333C50.8061 29.3333 52.0001 30.5273 52.0001 32Z" fill="white"/>
</g>
</svg>
