<svg width="80" height="80" viewBox="0 0 80 80" fill="none" xmlns="http://www.w3.org/2000/svg">
<path d="M72 40C72 57.6732 57.6732 72 40 72C22.3268 72 8 57.6732 8 40C8 22.3268 22.3268 8 40 8C57.6732 8 72 22.3268 72 40Z" fill="white"/>
<path d="M40 80C17.9089 80 0 62.0911 0 40C0 17.9089 17.9089 0 40 0C62.0911 0 80 17.9089 80 40C79.9753 62.0807 62.0807 79.9753 40 80ZM40 2.66667C19.3815 2.66667 2.66667 19.3815 2.66667 40C2.66667 60.6185 19.3815 77.3333 40 77.3333C60.6185 77.3333 77.3333 60.6185 77.3333 40C77.3099 19.3913 60.6087 2.6901 40 2.66667Z" fill="#F9BE40"/>
<path opacity="0.5" d="M50.6667 53.3334C50.4609 53.3353 50.2572 53.2897 50.0723 53.1999L23.6855 40L50.071 26.8067C50.7298 26.4772 51.5306 26.7448 51.86 27.4043C52.1895 28.0632 51.9219 28.864 51.2624 29.1934L29.6478 40L51.2624 50.8001C51.8249 51.0723 52.1224 51.6979 51.9798 52.3054C51.8366 52.9134 51.291 53.3405 50.6667 53.3334Z" fill="#F9BE40"/>
<path d="M33.3333 40C33.3333 43.6816 30.3483 46.6667 26.6667 46.6667C22.985 46.6667 20 43.6816 20 40C20 36.3184 22.985 33.3333 26.6667 33.3333C30.3483 33.3333 33.3333 36.3184 33.3333 40Z" fill="#FFAE00"/>
<path d="M57.3333 28C57.3333 31.6816 54.3483 34.6667 50.6667 34.6667C46.985 34.6667 44 31.6816 44 28C44 24.3184 46.985 21.3333 50.6667 21.3333C54.3483 21.3333 57.3333 24.3184 57.3333 28Z" fill="#FFAE00"/>
<path d="M57.3333 52C57.3333 55.6816 54.3483 58.6667 50.6667 58.6667C46.985 58.6667 44 55.6816 44 52C44 48.3184 46.985 45.3333 50.6667 45.3333C54.3483 45.3333 57.3333 48.3184 57.3333 52Z" fill="#FFAE00"/>
</svg>
