<svg viewBox="0 0 512 512" xmlns="http://www.w3.org/2000/svg" xmlns:xlink="http://www.w3.org/1999/xlink"><style>:root&gt;svg{display:none}:root&gt;svg:target{display:block}</style><svg viewBox="0 0 512 512" id="behance" xmlns="http://www.w3.org/2000/svg"><path d="M148.5 102.6c15.1 0 28.7 1.3 41.1 4 12.4 2.6 22.9 7 31.8 13 8.8 6 15.6 14 20.6 24 4.8 9.9 7.2 22.3 7.2 37 0 15.9-3.6 29.1-10.8 39.7-7.3 10.6-17.9 19.2-32.1 26 19.4 5.6 33.7 15.4 43.3 29.3 9.6 14 14.2 30.8 14.2 50.6 0 16-3.1 29.7-9.2 41.3-6.2 11.7-14.6 21.2-24.9 28.5-10.4 7.4-22.4 12.8-35.8 16.3-13.3 3.5-27 5.3-41.2 5.3H0v-315h148.5zm-9 127.2c12.3 0 22.5-2.9 30.5-8.8 8-5.8 11.8-15.4 11.8-28.6 0-7.3-1.3-13.4-3.9-18.1-2.7-4.7-6.2-8.4-10.7-11-4.4-2.7-9.4-4.5-15.3-5.5-5.7-1.1-11.7-1.6-17.8-1.6H69.3v73.6h70.2zm3.8 134.1c6.8 0 13.3-.6 19.4-2 6.2-1.4 11.7-3.5 16.3-6.7 4.6-3.1 8.5-7.2 11.3-12.6 2.8-5.3 4.1-12.1 4.1-20.4 0-16.2-4.6-27.8-13.7-34.8-9.1-6.9-21.2-10.3-36.2-10.3H69.3v86.7h74zm219.3-1.1c9.4 9.2 22.9 13.8 40.5 13.8 12.6 0 23.6-3.2 32.7-9.6s14.6-13.2 16.7-20.2h55.2c-8.9 27.5-22.3 47-40.7 58.8-18.1 11.8-40.3 17.8-66 17.8-18 0-34.1-2.9-48.6-8.6-14.5-5.8-26.6-13.9-36.8-24.5-9.9-10.6-17.7-23.2-23.2-38-5.4-14.7-8.2-31-8.2-48.6 0-17.1 2.8-33 8.4-47.7 5.7-14.8 13.5-27.5 23.9-38.2s22.6-19.2 37-25.4c14.3-6.2 30.1-9.3 47.6-9.3 19.3 0 36.2 3.7 50.7 11.3 14.4 7.5 26.3 17.6 35.6 30.2s15.9 27.1 20 43.3c4.1 16.2 5.5 33.1 4.4 50.8H347.1c0 17.9 6 35 15.5 44.1zM434.5 243c-7.4-8.2-20.1-12.7-35.4-12.7-10 0-18.3 1.7-24.9 5.1-6.5 3.4-11.8 7.6-15.9 12.6-4 5-6.8 10.4-8.4 16.1-1.6 5.5-2.6 10.6-2.9 15h102c-1.5-16-7-27.8-14.5-36.1zM334.2 128h127.7v31.1H334.2V128z"/></svg><svg fill="none" viewBox="0 0 80 80" id="book" xmlns="http://www.w3.org/2000/svg"><path d="M72 40c0 17.673-14.327 32-32 32C22.327 72 8 57.673 8 40 8 22.327 22.327 8 40 8c17.673 0 32 14.327 32 32z" fill="#fff"/><path d="M40 80C17.909 80 0 62.091 0 40S17.909 0 40 0s40 17.909 40 40c-.025 22.08-17.92 39.975-40 40zm0-77.333C19.381 2.667 2.667 19.382 2.667 40S19.382 77.333 40 77.333 77.333 60.618 77.333 40C77.31 19.391 60.61 2.69 40 2.667z" fill="#F9BE40"/><path d="M40 54.667c0-2.946-4.178-5.334-9.333-5.334s-9.334 2.388-9.334 5.334v-24c0-2.946 4.179-5.334 9.334-5.334 5.155 0 9.333 2.388 9.333 5.334v24zm18.667 0c0-2.946-4.179-5.334-9.334-5.334-5.155 0-9.333 2.388-9.333 5.334v-24c0-2.946 4.178-5.334 9.333-5.334s9.334 2.388 9.334 5.334v24z" fill="#5153FF"/><path d="M21.333 30.667h37.334v24H21.333v-24z" fill="#FFD780"/><path d="M49.333 25.333c-5.155 0-9.333 2.388-9.333 5.334 0-2.946-4.178-5.334-9.333-5.334s-9.334 2.388-9.334 5.334v24c0-2.946 4.179-5.334 9.334-5.334 5.155 0 9.333 2.388 9.333 5.334 0-2.946 4.178-5.334 9.333-5.334s9.334 2.388 9.334 5.334v-24c0-2.946-4.179-5.334-9.334-5.334z" fill="#FFAE00"/><path d="M41.333 27.929A3.814 3.814 0 0040 30.667a3.814 3.814 0 00-1.333-2.738v24A3.814 3.814 0 0140 54.667a3.814 3.814 0 011.333-2.738v-24z" fill="#FFD780"/></svg><svg fill="none" viewBox="0 0 80 80" id="browser" xmlns="http://www.w3.org/2000/svg"><path d="M72 40c0 17.673-14.327 32-32 32C22.327 72 8 57.673 8 40 8 22.327 22.327 8 40 8c17.673 0 32 14.327 32 32z" fill="#fff"/><path d="M40 80C17.909 80 0 62.091 0 40S17.909 0 40 0s40 17.909 40 40c-.025 22.08-17.92 39.975-40 40zm0-77.333C19.381 2.667 2.667 19.382 2.667 40S19.382 77.333 40 77.333 77.333 60.618 77.333 40C77.31 19.391 60.61 2.69 40 2.667z" fill="#F9BE40"/><path d="M25.333 25.333h29.334A2.667 2.667 0 0157.333 28v26.667H22.667V28a2.667 2.667 0 012.666-2.667z" fill="#FFD780"/><path d="M54.667 25.333H25.333A2.667 2.667 0 0022.667 28v5.333h34.666V28a2.667 2.667 0 00-2.666-2.667zm-22.667 8h2.667v21.334H32V33.333z" fill="#FFAE00"/><path d="M54.667 29.333a1.333 1.333 0 11-2.667 0 1.333 1.333 0 012.667 0zm-4 0a1.333 1.333 0 11-2.667 0 1.333 1.333 0 012.667 0zm-4 0a1.333 1.333 0 11-2.667 0 1.333 1.333 0 012.667 0z" fill="#FFD780"/></svg><svg fill="none" viewBox="0 0 80 80" id="edit" xmlns="http://www.w3.org/2000/svg"><path d="M72 40c0 17.673-14.327 32-32 32C22.327 72 8 57.673 8 40 8 22.327 22.327 8 40 8c17.673 0 32 14.327 32 32z" fill="#fff"/><path d="M54.304 25.696a5.334 5.334 0 00-7.543 0l-1.885 1.885L26.02 46.438 24 56l9.563-2.02 18.856-18.856 1.885-1.885a5.334 5.334 0 000-7.543z" fill="#FFAE00"/><path d="M40 80C17.909 80 0 62.091 0 40S17.909 0 40 0s40 17.909 40 40c-.025 22.08-17.92 39.975-40 40zm0-77.333C19.381 2.667 2.667 19.382 2.667 40S19.382 77.333 40 77.333 77.333 60.618 77.333 40C77.31 19.391 60.61 2.69 40 2.667z" fill="#F9BE40"/><path d="M26.02 46.438l7.543 7.542L24 56l2.02-9.563zm28.285-20.741a5.333 5.333 0 010 7.542l-1.886 1.886-7.543-7.543 1.886-1.885a5.333 5.333 0 017.543 0z" fill="#FFD780"/><path d="M56 57.5H24a1.333 1.333 0 010-2.667h32a1.333 1.333 0 010 2.667z" fill="#FFD780"/></svg><svg viewBox="0 0 512 512" id="facebook" xmlns="http://www.w3.org/2000/svg"><path d="M304 96h80V0h-80c-61.757 0-112 50.243-112 112v48h-64v96h64v256h96V256h80l16-96h-96v-48c0-8.673 7.327-16 16-16z"/></svg><svg fill="none" viewBox="0 0 80 80" id="favorite" xmlns="http://www.w3.org/2000/svg"><path d="M72 40c0 17.673-14.327 32-32 32C22.327 72 8 57.673 8 40 8 22.327 22.327 8 40 8c17.673 0 32 14.327 32 32z" fill="#fff"/><path d="M40 80C17.909 80 0 62.091 0 40S17.909 0 40 0s40 17.909 40 40c-.025 22.08-17.92 39.975-40 40zm0-77.333C19.381 2.667 2.667 19.382 2.667 40S19.382 77.333 40 77.333 77.333 60.618 77.333 40C77.31 19.391 60.61 2.69 40 2.667z" fill="#F9BE40"/><path d="M53.333 58.667L40 52l-13.333 6.667 2.666-13.334L20 36l13.333-2.667 6.667-12 6.667 12L60 36l-9.333 9.333 2.666 13.334z" fill="#FFAE00"/></svg><svg fill="none" viewBox="0 0 266 82" id="game-logo" xmlns="http://www.w3.org/2000/svg"><path d="M104.144 80.439c-1.01-1.167-1.582-2.533-1.65-4.1-.101-1.532.135-3.131.64-4.797a23.632 23.632 0 012.019-4.732c.842-1.5 1.683-2.766 2.524-3.832-1.884.2-3.5-.134-4.779-1.033-1.312-.9-2.288-2.133-2.995-3.732-.707-1.567-1.077-3.266-1.145-5.066-.067-1.799.169-3.498.707-5.098a5.184 5.184 0 011.246-1.966c.538-.533 1.144-.9 1.75-1 .606-.1 1.11.1 1.548.667.437.566.639 1.6.639 3.099 0 .233 0 .533-.033.866a57.51 57.51 0 000 3.432c.033 1.3.202 2.466.471 3.5.269 1.032.774 1.632 1.481 1.799 1.481-.167 2.625-.767 3.399-1.833.774-1.066 1.313-2.332 1.649-3.832.337-1.5.572-2.932.741-4.365.134-1.3.303-2.333.538-3.166.236-.766.673-1.2 1.279-1.233.606-.033 1.178.233 1.717.833.538.6.807 1.4.841 2.5-.034.6-.034 1.232-.067 1.832a68.14 68.14 0 000 3.732c.033 1.133.168 1.933.437 2.366.236.267.707.233 1.414-.133.707-.367 1.481-.9 2.356-1.6a88.74 88.74 0 002.457-2.032c.336-.3.673-.567.942-.767 1.144-.933 1.717-1.066 1.683-.466 0 .6-.438 1.6-1.313 3.032-.875 1.4-1.985 2.866-3.332 4.365-1.346 1.5-2.827 2.666-4.375 3.533-.067 2.599-.337 5.364-.808 8.263-.471 2.9-1.346 5.465-2.625 7.665-.707 1.166-1.582 2.199-2.659 3.165-1.077.933-2.187 1.5-3.365 1.666-1.178.167-2.255-.4-3.332-1.532zm7.673-17.128c-.707.666-1.413 1.866-2.154 3.599a25.597 25.597 0 00-1.615 5.265c-.337 1.766-.27 3.132.202 3.998.303-.166.673-.833 1.11-2.032.438-1.167.842-2.533 1.246-4.099a90.83 90.83 0 00.976-4.265c.269-1.3.303-2.066.235-2.466z" fill="#F9BE40"/><path d="M104.144 80.439c-1.01-1.167-1.582-2.533-1.65-4.1-.101-1.532.135-3.131.64-4.797a23.632 23.632 0 012.019-4.732c.842-1.5 1.683-2.766 2.524-3.832-1.884.2-3.5-.134-4.779-1.033-1.312-.9-2.288-2.133-2.995-3.732-.707-1.567-1.077-3.266-1.145-5.066-.067-1.799.169-3.498.707-5.098a5.184 5.184 0 011.246-1.966c.538-.533 1.144-.9 1.75-1 .606-.1 1.11.1 1.548.667.437.566.639 1.6.639 3.099 0 .233 0 .533-.033.866a57.51 57.51 0 000 3.432c.033 1.3.202 2.466.471 3.5.269 1.032.774 1.632 1.481 1.799 1.481-.167 2.625-.767 3.399-1.833.774-1.066 1.313-2.332 1.649-3.832.337-1.5.572-2.932.741-4.365.134-1.3.303-2.333.538-3.166.236-.766.673-1.2 1.279-1.233.606-.033 1.178.233 1.717.833.538.6.807 1.4.841 2.5-.034.6-.034 1.232-.067 1.832a68.14 68.14 0 000 3.732c.033 1.133.168 1.933.437 2.366.236.267.707.233 1.414-.133.707-.367 1.481-.9 2.356-1.6a88.74 88.74 0 002.457-2.032c.336-.3.673-.567.942-.767 1.144-.933 1.717-1.066 1.683-.466 0 .6-.438 1.6-1.313 3.032-.875 1.4-1.985 2.866-3.332 4.365-1.346 1.5-2.827 2.666-4.375 3.533-.067 2.599-.337 5.364-.808 8.263-.471 2.9-1.346 5.465-2.625 7.665-.707 1.166-1.582 2.199-2.659 3.165-1.077.933-2.187 1.5-3.365 1.666-1.178.167-2.255-.4-3.332-1.532zm7.673-17.128c-.707.666-1.413 1.866-2.154 3.599a25.597 25.597 0 00-1.615 5.265c-.337 1.766-.27 3.132.202 3.998.303-.166.673-.833 1.11-2.032.438-1.167.842-2.533 1.246-4.099a90.83 90.83 0 00.976-4.265c.269-1.3.303-2.066.235-2.466zM42.96 38.385c.235-.933.672-2.066 1.245-3.432a17.398 17.398 0 012.12-3.7c.841-1.099 1.75-1.799 2.76-2.032 1.01-.233 2.053.267 3.164 1.533.538.666.841 1.6.942 2.8.1 1.199.067 2.565-.168 4.098a93.173 93.173 0 015.183-.034c1.346.034 2.086.134 2.154.267.303.9.067 1.6-.64 2.133-.74.533-1.783.9-3.13 1.133a29.169 29.169 0 01-4.375.4c-.64 2.665-1.38 4.998-2.221 6.964-.842 1.966-1.953 3.599-3.332 4.865.437 2.1 1.178 3.465 2.22 4.099 1.01.633 2.189.733 3.501.366 1.313-.4 2.625-1.066 3.972-2.032a38.19 38.19 0 003.736-3.066c1.144-1.066 2.053-1.966 2.726-2.7.572-.566.942-.6 1.077-.033.134.567-.135 1.6-.808 3.133-.673 1.433-1.548 2.865-2.692 4.365a21.51 21.51 0 01-3.837 3.965c-1.448 1.167-2.962 1.933-4.544 2.366-1.582.433-3.197.267-4.746-.433-1.615-.8-2.86-2.066-3.702-3.832-.841-1.766-1.413-3.766-1.683-5.965a39.07 39.07 0 01-.235-6.564 43.16 43.16 0 01.64-5.732c-1.38 0-2.794-.1-4.342-.233-1.549-.133-2.828-.4-3.972-.767.774-.433 1.986-.8 3.568-1.132 1.582-.334 3.433-.567 5.418-.8zm3.6 10.496c.573-.5 1.145-1.3 1.65-2.399.505-1.1.976-2.699 1.38-4.831-.673 0-1.347-.034-1.986-.067-.438 1.433-.774 2.832-.976 4.232-.135 1.366-.168 2.399-.067 3.065zm3.535-11.063c.134-2.166 0-3.165-.337-3.065-.337.1-.774 1.166-1.279 3.132.539 0 1.11-.033 1.616-.067z" fill="#F9BE40"/><path d="M65.34 61.61c-1.817-.832-3.13-2.199-3.938-3.998-.84-1.833-1.11-3.765-.875-5.798.236-2.033 1.077-3.832 2.457-5.332 1.515-1.532 3.231-2.565 5.15-3.099 1.885-.533 3.534-.5 4.88.134 1.683.9 2.894 2.166 3.669 3.865.774 1.7 1.077 3.499.976 5.432-.135 1.932-.674 3.698-1.616 5.298-.976 1.6-2.356 2.766-4.14 3.499-1.784.733-3.971.7-6.563 0zm1.414-12.029c-.842.833-1.28 1.8-1.313 2.966-.033 1.166.135 2.233.606 3.166.438.933 1.043 1.5 1.784 1.7.808.166 1.683.1 2.591-.167 1.28-.4 2.12-1.133 2.592-2.2.438-1.066.572-2.199.303-3.365-.471-1.933-1.28-3.066-2.524-3.466-1.212-.4-2.558.067-4.04 1.366zm13.226.334c-.302-1.266-.336-2.166-.067-2.7.236-.566.875-.966 1.851-1.266.64-.166 1.111-.066 1.414.3.303.367.505.8.673 1.233.101.334.202.567.303.667 1.043-2.4 2.423-3.966 4.106-4.699 1.683-.733 3.736-.533 6.193.667 1.178.666 1.952 1.6 2.356 2.799.37 1.2.437 2.332.168 3.399-.27 1.066-.774 1.732-1.514 2.032-.74.267-1.683-.2-2.76-1.4-.303-.4-.572-.899-.808-1.499-.168-.433-.37-.8-.538-1.133-.202-.333-.438-.533-.707-.6-1.077-.133-1.919.234-2.558 1.133-.64.9-1.144 2.066-1.548 3.566-.404 1.5-.74 3.032-1.01 4.632-.337 2-.74 3.765-1.212 5.231-1.11-.1-2.02-.5-2.659-1.266-.639-.766-1.01-1.666-1.077-2.766-.067-.9-.067-1.766-.067-2.632 0-.9-.034-1.833-.067-2.766-.034-.933-.27-1.933-.471-2.932zm85.958 13.962c-1.649.066-2.928-.534-3.836-1.833-.909-1.3-1.549-3.032-1.919-5.198a39.8 39.8 0 01-.437-7.131c-1.347.033-2.626 0-3.804-.067s-2.086-.167-2.759-.233c-.303-.034-.505-.067-.674-.067-.067.5-.1.966-.168 1.5a134.733 134.733 0 00-.606 6.997c-.134 2.233-.134 4.266.068 6.032-1.75.066-3.097-.634-4.005-2.066-.909-1.433-1.515-3.3-1.784-5.665-.269-2.366-.337-4.865-.202-7.564a10.234 10.234 0 01-1.515-.6c.404-.333.943-.633 1.616-.933.336-4.099.808-7.664 1.481-10.73.639-3.066 1.11-4.632 1.413-4.765 1.448.2 2.491.966 3.13 2.232.64 1.267 1.01 2.933 1.111 4.932.101 2 .067 4.232-.168 6.598a90.629 90.629 0 017.135-.7c.37-3.965.875-7.397 1.514-10.23.606-2.832 1.044-4.332 1.347-4.498 1.312-.067 2.255.6 2.86 1.9.573 1.332.909 3.131 1.01 5.364.101 2.233.034 4.765-.134 7.53.269.067.403.134.437.2.269 1.2.067 2.167-.639 2.833-.068.667-.101 1.3-.135 1.966-.202 2.666-.37 5.199-.471 7.664a50.544 50.544 0 00.134 6.532zm8.514-2.365a7.147 7.147 0 01-2.895-2.366 12.395 12.395 0 01-1.716-3.465c-.707-2.433-.707-4.566.034-6.432a10.197 10.197 0 013.433-4.498c1.548-1.133 3.163-1.9 4.846-2.233 1.683-.333 3.13-.233 4.342.367 1.178.566 1.817 1.666 1.884 3.299-.033 1.866-.437 3.365-1.211 4.465-.774 1.1-1.717 1.9-2.861 2.432a13.114 13.114 0 01-3.231 1.067c-1.043.166-1.817.266-2.356.3-.336 0-.505.033-.505.066.337 1.333.976 2.2 1.885 2.633.909.433 1.986.466 3.197.1 1.212-.367 2.828-1.333 4.813-2.866 2.053-1.8 3.433-3.266 4.14-4.432.707-1.166 1.212-2.033 1.447-2.699.303-.8.909-1.233 1.818-1.3.875-.066 1.582.467 2.12 1.6.101.333.202.566.337.666 1.043-2.399 2.389-3.965 4.072-4.698 1.683-.733 3.736-.533 6.193.666 1.178.667 1.986 1.6 2.356 2.8.37 1.199.437 2.332.168 3.398-.269 1.067-.774 1.733-1.514 2.033-.741.267-1.683-.2-2.794-1.4-.303-.4-.572-.9-.808-1.5-.168-.432-.37-.799-.538-1.132-.202-.333-.438-.533-.673-.6-1.077-.133-1.919.233-2.592 1.133-.639.9-1.178 2.066-1.548 3.566a48.922 48.922 0 00-1.01 4.632c-.336 1.999-.74 3.765-1.211 5.231-1.111-.1-2.02-.5-2.659-1.266-.64-.767-1.01-1.666-1.077-2.766-.068-.9-.068-1.766-.068-2.632 0-.9-.033-1.833-.067-2.766-2.188 3.265-4.14 5.531-5.89 6.83-1.75 1.3-3.5 2.1-5.217 2.4-1.716.3-3.332.067-4.644-.633zm4.207-11.196c1.212-1 1.784-1.733 1.716-2.233-.067-.466-.504-.666-1.312-.566-.808.1-1.717.533-2.693 1.266s-1.817 1.866-2.49 3.332c.841.067 1.716-.1 2.625-.533.875-.4 1.582-.833 2.154-1.266zM213.53 61.61c-1.818-.832-3.13-2.199-3.938-3.998-.841-1.833-1.111-3.765-.875-5.798.235-2.033 1.077-3.832 2.457-5.332 1.514-1.532 3.231-2.565 5.149-3.099 1.885-.533 3.534-.5 4.88.134 1.683.9 2.895 2.166 3.669 3.865.774 1.7 1.077 3.499.976 5.432-.135 1.932-.673 3.698-1.615 5.298-.976 1.6-2.356 2.766-4.14 3.499-1.784.733-4.005.7-6.563 0zm1.413-12.029c-.841.833-1.279 1.8-1.312 2.966-.034 1.166.134 2.233.606 3.166.437.933 1.043 1.5 1.783 1.7.808.166 1.683.1 2.592-.167 1.279-.4 2.12-1.133 2.591-2.2.438-1.066.573-2.199.303-3.365-.471-1.933-1.279-3.066-2.524-3.466-1.245-.4-2.558.067-4.039 1.366zm18.409 11.931a7.147 7.147 0 01-2.895-2.366 12.478 12.478 0 01-1.75-3.465c-.707-2.433-.673-4.566.067-6.432a10.39 10.39 0 013.4-4.498c1.548-1.133 3.13-1.9 4.846-2.233 1.683-.333 3.13-.233 4.342.367 1.211.566 1.817 1.7 1.885 3.332-.034 1.866-.438 3.332-1.212 4.432a7.352 7.352 0 01-2.861 2.432 13.114 13.114 0 01-3.231 1.067c-1.043.166-1.851.266-2.39.3-.302 0-.471.033-.471.066.337 1.333.976 2.166 1.986 2.5.976.333 2.053.366 3.197.1 1.145-.267 2.188-.7 3.063-1.267 1.38-.9 2.693-1.866 3.904-2.965 1.212-1.1 2.188-2 2.928-2.733l.169-.166c.572-.534.976-.567 1.211-.167.236.4.034 1.333-.639 2.732a30.024 30.024 0 01-2.289 3.966c-.908 1.332-1.952 2.499-3.197 3.498-1.245 1-2.693 1.667-4.342 2-1.649.333-3.534.2-5.721-.5zm4.207-11.196c1.211-1 1.783-1.733 1.716-2.233-.067-.466-.505-.666-1.312-.566-.808.1-1.717.533-2.693 1.266s-1.817 1.866-2.491 3.332c.842.067 1.717-.1 2.626-.533.908-.4 1.615-.833 2.154-1.266z" fill="#F9BE40"/><path d="M257.179 48.215c-.572-.833-1.346-1.133-2.356-.966-1.009.166-1.884.666-2.692 1.466-.808.8-1.145 1.8-1.044 2.932.101 1.133.943 2.3 2.592 3.466 1.582.233 3.197.133 4.88-.3 1.649-.433 3.938-2 6.832-4.699.337-.266.539-.066.606.567.034.633-.269 1.633-.908 2.932-.64 1.333-1.616 2.4-2.929 3.2-1.312.799-3.13 1.399-5.418 1.765.471.8.538 1.666.168 2.633-.337.966-1.077 1.766-2.154 2.4-1.077.632-2.322 1.066-3.702 1.265-1.38.2-2.693.1-3.938-.3-1.683-.633-2.659-1.499-2.895-2.632-.235-1.133.068-2.233.943-3.332.875-1.1 2.188-1.933 3.938-2.466a8.61 8.61 0 01-2.255-2.3c-.875-1.432-1.145-2.932-.909-4.565.236-1.632 1.111-3.032 2.558-4.231 1.481-1.133 3.13-1.933 4.914-2.333 1.784-.4 3.332-.4 4.644.033 1.313.433 1.986 1.3 2.053 2.666-.033.5-.168 1.133-.437 1.9-.269.766-.606 1.299-1.043 1.599-.404.366-.909.133-1.448-.7zm-5.62 10.996c-1.178.1-2.255.367-3.198.8-.942.433-1.346.867-1.211 1.3.134.433.471.733 1.077.933.605.2 1.245.133 2.019-.167.707-.266 1.212-.7 1.548-1.266.303-.6.236-1.133-.235-1.6zM14.485 27.022c-.707 1.267-1.111 2.566-1.212 3.866-.168 2.199.572 4.631 2.221 7.33 1.65 2.7 4.578 5.499 8.751 8.364 3.063 2.1 4.947 3.866 5.688 5.299.74 1.433.673 2.566-.135 3.399-1.48 1.566-3.029 2.465-4.678 2.665-1.649.2-3.164-.133-4.61-.966-1.448-.833-2.626-2-3.568-3.499-.943-1.5-1.448-3.165-1.549-4.965-2.019 1.933-3.062 3.832-3.096 5.665-.034 1.866.471 3.532 1.582 5.065 1.11 1.5 2.39 2.7 3.837 3.599 2.423 1.5 5.216 2.232 8.313 2.133 3.13-.1 6.159-1.1 9.12-3 2.626-1.766 4.14-3.598 4.578-5.464.438-1.866.135-3.733-.909-5.565-1.043-1.866-2.457-3.666-4.274-5.398a91.513 91.513 0 00-5.52-4.866c-1.784-1.466-3.298-2.799-4.442-3.965-1.717-1.833-2.861-3.499-3.4-4.998-.538-1.5-.235-2.633.875-3.366 1.111-.733 3.231-.833 6.429-.233a7.473 7.473 0 013.466 1.666c.943.866 1.75 1.8 2.424 2.866a46.329 46.329 0 011.615 2.899c.404.866.774 1.5 1.077 1.9.303.399.606.366.875-.068 2.255-3.832 2.861-7.13 1.75-9.83-.807-2.032-2.356-3.598-4.644-4.765a138.481 138.481 0 01-10.737 2.633 162.08 162.08 0 01-9.827 1.6zm17.334-12.33c.403.533.774.933.976 1.233.201.233.269.566.201.866-.067.3-.269.533-.572.667-.168.066-4.038 1.799-9.02 2.799-2.961.6-5.62.9-7.909.9-1.85 0-2.793-.2-2.894-.234a.993.993 0 01-.74-1.2c.067-.333.134-.633.235-.966C4.658 20.923-.29 23.322.013 24.855c.438 2.166 11.174 1.833 23.997-.766 1.582-.333 3.164-.667 4.645-1.033h.034a193.54 193.54 0 004.274-1.1c8.178-2.266 13.732-4.832 13.395-6.464-.303-1.6-6.26-1.833-14.54-.8z" fill="#F9BE40"/><path d="M31.887 16.392s0-.034 0 0c-.101-.134-.202-.234-.303-.4-.068-.1-.169-.2-.236-.3-.067-.067-.1-.133-.168-.2-.135-.167-.27-.333-.438-.533-.033-.034-.034-.067-.067-.1C27.545 10.96 19.837 1.529 18.323.763 16.37-.203 13.14-.936 12.333 3.03c-.809 3.966-.338 4.566-1.886 5.399-1.548.833-5.284 1.666-4.038 4.098 1.245 2.4 3.23.867 3.904.6 1.245-.5 3.163-1.366 4.14-2.632.84-1.1.976-1.167 1.278-2.533 0 0 .169 1.6-.572 2.5-.067.066-2.288 9.463-2.288 9.463s.067 0 .168.033h.1c.102 0 .203.034.371.067.067 0 .168 0 .236.033.168.033.336.034.572.034h.404c.235 0 .437.033.74.033h.068c.201 0 .437 0 .673-.034.235 0 .437 0 .673-.033.303 0 .673-.033 1.01-.066.269-.034.47-.034.74-.067.437-.034.909-.1 1.413-.167.236-.033.438-.066.707-.1.774-.1 1.582-.266 2.457-.433 1.245-.233 2.39-.533 3.467-.833 3.163-.9 5.351-1.9 5.351-1.9s-.034 0-.134-.1zm79.358-13.296c.614 0 1.111-.492 1.111-1.1 0-.607-.497-1.1-1.111-1.1-.613 0-1.11.493-1.11 1.1 0 .608.497 1.1 1.11 1.1zm69.131 2.366c.613 0 1.11-.492 1.11-1.1 0-.607-.497-1.1-1.11-1.1-.614 0-1.111.493-1.111 1.1 0 .608.497 1.1 1.111 1.1zM66.82 18.524c.614 0 1.111-.492 1.111-1.1 0-.607-.497-1.099-1.11-1.099-.614 0-1.111.492-1.111 1.1 0 .607.497 1.1 1.11 1.1zm185.147 12.463c.613 0 1.11-.492 1.11-1.1 0-.607-.497-1.099-1.11-1.099-.614 0-1.111.492-1.111 1.1 0 .607.497 1.1 1.111 1.1zM123.732 19.458c1.134 0 2.053-.91 2.053-2.033a2.043 2.043 0 00-2.053-2.032c-1.134 0-2.053.91-2.053 2.032 0 1.123.919 2.033 2.053 2.033zm33.187-2.033c2.008 0 3.635-1.611 3.635-3.599 0-1.987-1.627-3.599-3.635-3.599-2.007 0-3.635 1.612-3.635 3.6 0 1.987 1.628 3.598 3.635 3.598zM54.905 10.228c1.32 0 2.39-1.06 2.39-2.366 0-1.307-1.07-2.366-2.39-2.366s-2.39 1.06-2.39 2.366 1.07 2.366 2.39 2.366zm181.107 14.628c1.19 0 2.154-.955 2.154-2.133a2.143 2.143 0 00-2.154-2.132 2.144 2.144 0 00-2.154 2.132c0 1.178.965 2.133 2.154 2.133zm-47.895 4.732c1.19 0 2.154-.955 2.154-2.133a2.143 2.143 0 00-2.154-2.132c-1.19 0-2.154.954-2.154 2.132 0 1.178.964 2.133 2.154 2.133zM91.929 20.19c1.346-1.332 2.827-8.33 2.827-8.33s1.043 6.764 2.356 8.33c1.211 1.433 8.649 2.433 8.649 2.433s-6.966.966-8.313 2.233c-1.48 1.4-2.591 8.697-2.591 8.697s-1.616-7.098-2.895-8.564c-1.346-1.566-8.145-2.233-8.145-2.233s6.866-1.3 8.112-2.565zM214.338 9.36c1.346-1.332 2.827-8.33 2.827-8.33s1.044 6.764 2.356 8.33c1.212 1.434 8.65 2.433 8.65 2.433s-6.967.966-8.313 2.233c-1.481 1.4-2.592 8.697-2.592 8.697s-1.615-7.098-2.894-8.564c-1.347-1.566-8.145-2.233-8.145-2.233s6.866-1.332 8.111-2.565z" fill="#F9BE40"/></svg><svg viewBox="0 0 512 512" id="instagram" xmlns="http://www.w3.org/2000/svg"><path d="M256 46.1c68.4 0 76.5.3 103.4 1.5 25 1.1 38.5 5.3 47.5 8.8 11.9 4.6 20.5 10.2 29.4 19.1 9 9 14.5 17.5 19.2 29.4 3.5 9 7.7 22.6 8.8 47.5 1.2 27 1.5 35.1 1.5 103.4s-.3 76.5-1.5 103.4c-1.1 25-5.3 38.5-8.8 47.5-4.6 11.9-10.2 20.5-19.1 29.4-9 9-17.5 14.5-29.4 19.2-9 3.5-22.6 7.7-47.5 8.8-27 1.2-35.1 1.5-103.4 1.5s-76.5-.3-103.4-1.5c-25-1.1-38.5-5.3-47.5-8.8-11.9-4.6-20.5-10.2-29.4-19.1-9-9-14.5-17.5-19.2-29.4-3.5-9-7.7-22.6-8.8-47.5-1.2-27-1.5-35.1-1.5-103.4s.3-76.5 1.5-103.4c1.1-25 5.3-38.5 8.8-47.5 4.6-11.9 10.2-20.5 19.1-29.4 9-9 17.5-14.5 29.4-19.2 9-3.5 22.6-7.7 47.5-8.8 26.9-1.2 35-1.5 103.4-1.5zM256 0c-69.5 0-78.2.3-105.5 1.5-27.2 1.2-45.9 5.6-62.1 11.9C71.5 20 57.2 28.7 43 43 28.7 57.2 20 71.5 13.4 88.3c-6.3 16.3-10.7 34.9-11.9 62.1C.3 177.8 0 186.5 0 256s.3 78.2 1.5 105.5c1.2 27.2 5.6 45.9 11.9 62.1C20 440.5 28.7 454.8 43 469c14.2 14.2 28.5 23 45.3 29.5 16.3 6.3 34.9 10.7 62.1 11.9 27.3 1.2 36 1.5 105.5 1.5s78.2-.3 105.5-1.5c27.2-1.2 45.9-5.6 62.1-11.9 16.8-6.5 31.1-15.3 45.3-29.5s23-28.5 29.5-45.3c6.3-16.3 10.7-34.9 11.9-62.1 1.2-27.3 1.5-36 1.5-105.5s-.3-78.2-1.5-105.5c-1.2-27.2-5.6-45.9-11.9-62.1-6.3-17-15-31.3-29.3-45.5-14.2-14.2-28.5-23-45.3-29.5-16.3-6.3-34.9-10.7-62.1-11.9C334.2.3 325.5 0 256 0z"/><path d="M256 124.5c-72.6 0-131.5 58.9-131.5 131.5S183.4 387.5 256 387.5 387.5 328.6 387.5 256 328.6 124.5 256 124.5zm0 216.8c-47.1 0-85.3-38.2-85.3-85.3s38.2-85.3 85.3-85.3c47.1 0 85.3 38.2 85.3 85.3s-38.2 85.3-85.3 85.3zm167.4-222c0 16.955-13.745 30.7-30.7 30.7S362 136.255 362 119.3s13.745-30.7 30.7-30.7 30.7 13.745 30.7 30.7z"/></svg><svg fill="none" viewBox="0 0 60 60" id="logo" xmlns="http://www.w3.org/2000/svg"><path d="M30 60c16.569 0 30-13.431 30-30C60 13.431 46.569 0 30 0 13.431 0 0 13.431 0 30c0 16.569 13.431 30 30 30z" fill="url(#ipaint0_radial)"/><path d="M6.339 30.143c-1.834 2.166-2.5 4-2 4.833a1.796 1.796 0 001.5.5c1.3.142 2.614-.03 3.833-.5a13.97 13.97 0 015-2.833 17.74 17.74 0 016.667-.667l-.834-.833a7.702 7.702 0 01-1.166-1.167c-.822.264-1.656.486-2.5.667-2 .5-3.667.5-4 .666-2.19.22-4.4-.008-6.5-.666z" fill="#7A5849" stroke="#3E254A" stroke-width=".25" stroke-miterlimit="10"/><path d="M8.971 28.45a20.082 20.082 0 013.827 0 21.99 21.99 0 013.993 0c.832.242 2.662.483 2.662.965 0 .723-1.497 1.445-2.163 1.687-3.039 1.725-6.405 1.81-9.483.24-.5-.24-1.83-1.204-1.83-1.927.945-.6 1.962-.928 2.994-.964z" fill="#9B705C" stroke="#3D2747" stroke-width=".25" stroke-miterlimit="10"/><path d="M13.006 29.309c5.063 0 9.167-3.955 9.167-8.834 0-4.878-4.104-8.833-9.167-8.833-5.062 0-9.166 3.955-9.166 8.834 0 4.878 4.104 8.833 9.166 8.833z" fill="#44C0C9" stroke="#2B3552" stroke-width=".25" stroke-miterlimit="10"/><path opacity=".42" d="M13.006 12.142a7.325 7.325 0 017.5 6.666 7.4 7.4 0 01-7.5 7.667A7.508 7.508 0 016.03 21.73a7.506 7.506 0 01-.524-2.92 7.703 7.703 0 017.5-6.667z" fill="#fff"/><path opacity=".85" d="M17.005 19.81a1.667 1.667 0 100-3.334 1.667 1.667 0 000 3.334z" fill="#fff"/><path d="M13.006 18.143a.833.833 0 100-1.667.833.833 0 000 1.667zm2.15 3.333a.833.833 0 100-1.667.833.833 0 000 1.667z" fill="#fff"/><path d="M14.121 31.113c1.406-.82 3.926-1.816 5.684-1.7 2.343-.058 4.394 1.759 4.512 1.583 1.054-2.344 3.456-2.754 6.46-3.667a39.874 39.874 0 015 0h3.333a108.139 108.139 0 007.5 5.834c2.667 1.833 5.333 3.5 7.667 5 .038.951.15 1.898.333 2.833a31.486 31.486 0 001 3c-3.333-.167-6.158.183-8.325.183-1.98-.101-3.81.403-5.683 1.055-1.698.819-2.988 2.168-4.325 3.262-2.355 0-4.673.061-7.042.488-1.932.597-3.905.95-5.625 2.012-2.637 1.629-5.45 3.789-8.167 5-1.666-3-3.166-6.667-5-9.667-1.666-2.833-3.096-5.694-4.763-8.36-.167-.334-.176-.41-.237-.82-.056-1.173 5.334-4.864 7.678-6.036z" fill="#E3C09E"/><path opacity=".76" d="M14.112 31.133c1.884-1.133 2.939-1.367 4.5-1.667 2.184-.419 4.943.944 5.833 1.667.106-1.777 3.094-3.125 6.334-3.667a39.91 39.91 0 015 0h3.333c2.167 1.833 4.754 3.698 7.587 5.698a281.658 281.658 0 007.442 4.922c.117.938.287 2.112.47 3.047a31.495 31.495 0 001 3c-3.332-.167-6.166 0-8.332 0-1.98-.102-3.803.528-5.675 1.18-1.698.818-2.989 2.226-4.325 3.32-2.414 0-4.79.002-7.16.43-1.931.597-3.787 1.007-5.507 2.07a39.844 39.844 0 00-8.167 5c-1.667-3-3.167-6.667-5-9.667-1.666-2.833-2.982-5.948-4.648-8.614-.167-.334-.41-.586-.352-.762 0-1 4.102-4.043 7.667-5.957z" fill="url(#ipaint1_radial)"/><path d="M6.943 38.33v-.334m-.451.618c.152-.25.21-.545.167-.833 0-.334-.096-.34-.214-.515-.166-.5.996-1.524 1.7-2.168" stroke="#4D3752" stroke-width=".25" stroke-miterlimit="10"/><path d="M7.943 35.33a25.093 25.093 0 014.333-3.167c2.5-1.5 5.333-3.166 8.5-2.666 1.328.285 2.369.796 3.54 1.558m0 0c.059-.352.293-.559.626-1.059.4-.502.915-.902 1.5-1.166a16.068 16.068 0 014.334-1.334 35.974 35.974 0 018.5 0c4.904 4.262 9.591 7.191 14.865 10.59" stroke="#4D3752" stroke-width=".25" stroke-miterlimit="10"/><path d="M54.14 38.086c-5.833 1.167-14.03.41-18.03 6.577" stroke="#4D3657" stroke-width=".25" stroke-miterlimit="10"/><path d="M24.316 31.055c1.834 1.833 3.46 3.608 5.46 5.941 2 2.5 3.83 4.841 5.497 7.008M7.943 35.33c3 5.167 6.167 10.5 9.167 15.667m0-.02c2 .833 4.778-3.172 8.945-5.172 2.794-1.353 5.96-1.998 9.043-1.625M17.11 50.977c-.167 1-.168 1.853-.334 2.853" stroke="#4D3752" stroke-width=".25" stroke-miterlimit="10"/><path d="M54.55 40.737l-.41-2.636c.393-.03.997.468 1.465 1.113.71.977.938 1.977 1.005 2.464.077.566.167 1.168.167 1.799l-.058.586-.11.949h-1.666c-7.667.166-11.5.166-14.5 2.166a10.57 10.57 0 01-4.5 2.334 7.363 7.363 0 01-2.833-.167c-1.334-.167-3.167.167-10.167 4.5-4.167 2.667-5.167 3.667-6.5 3.167-1.333-.5-1.333-1.834-2.667-4.5-2.666-6-8-11.334-7.5-13.667 0-.167.167-1 .334-1 .166 0 .166.333.166.5h.334c3 5.667 6.166 11 9.333 16.5.167-.333.077-1.043.167-1.167.09-.123.113-.111.206-.123.21-.027.294.457.294.457.166.666-.334 1.5-.167 1.666 5.333-3 9.333-7.333 17.5-7.166-.167-1.834.833-2.667 1.333-3.667-.235.025-.55.01-.62-.138-.07-.147-.046-.362-.046-.362v-.167l.166-.166c.5 0 .89.422 1 .5.11.078.138.079.167.166.02.062 0 .167 0 .167-.167.667-.5.667-.5 1.333.667 0 1-.5 1.833-.333.5.167.5 1 .834 1.5 2.833-4 10.712-3.218 16.878-3.385a7.97 7.97 0 01-.644-1.597c-.176-.64-.176-.981-.293-1.626z" fill="#42294D" stroke="#472D52" stroke-width=".25" stroke-miterlimit="10"/><path d="M6.735 38.637l-.323-.08c-.04-.526-.04-1.359.121-1.318l.15.35.114.204c.352.586.469.645.262.925a.162.162 0 01-.137.125.163.163 0 01-.065-.004l-.122-.202z" fill="#42294D"/><path opacity=".47" d="M7.91 35.332l9.2 15.645-.235 2.05-.293 1.992c-4.024-6.807-6.315-10.846-10.137-17.753-.135-.265.576-1.157 1.465-1.993v.059z" fill="#070B14" stroke="#09002E" stroke-width=".25" stroke-miterlimit="10"/><path opacity=".44" d="M16.41 55.297l.7-4.32s.995.895 4.609-2.318c2.539-2.018 4.12-3.014 6.992-3.893 1.934-.592 4.395-.82 6.387-.586.703 1.406 1.758-.762 2.343-1.172.731-.66 1.094-1.067 1.934-1.582 1.113-.683 2.578-1.27 3.633-1.582 1.582-.469 4.99-.962 5.625-.996.644-.118 4.971-.577 5.508-.762.295-.05.82.41.996.586.234.293.489.628.644.879.8 1.29 1.055 2.93.996 3.867-.04.645-.175.84-.234 1.465-2.576.014-4.512.117-6.759.214-2.212-.075-6.79.25-8.74 1.562a16.3 16.3 0 01-5.032 2.7 12.81 12.81 0 01-3.743-.187c-1.313-.225-5.69 2.2-6.59 2.7-.9.5-4.66 2.812-5.785 3.675-1.125.862-3.832 2.117-3.485-.25z" fill="#070B14"/><path d="M28.718 31.341a6.239 6.239 0 01-.669-2.921c0-.98.257-1.944.743-2.794a5.177 5.177 0 012.798-2.097c2.4-.956 3.514-.08 5.289-1.145a11.98 11.98 0 016.472.735c.288.233.697.929 1.312.914.681-.017 1.736-.412 2.098.256a7.889 7.889 0 001.395 1.63c.688.73.567.68 1.382 1.578a19.865 19.865 0 002.29 2.321c1.58 1.234 2.62 1.072 2.797 1.853.191.844-.82 1.812-1.399 2.242a3.31 3.31 0 01-2.535.488 5.551 5.551 0 01-2.362-.934c-1.09-.706-1.225-1.237-2.096-1.504a3.115 3.115 0 00-1.74.024c-3.144.781-5.458 2.294-8.314 2.706a7.268 7.268 0 01-5.201-.829 6.18 6.18 0 01-2.26-2.523z" fill="#4359B5" stroke="url(#ipaint2_linear)" stroke-width=".25" stroke-miterlimit="10"/><path d="M38.03 18.761c.76-1.486 1.137-2.37 2.14-4.147 0 0 2.193-3.917 4.147-4.532.237-.072.487-.096.734-.07.321.05.622.19.87.402.748.607.937 1.712 1.734 3.05.81 1.36 1.592 1.996 1.508 2.907-.014.235-.101.46-.25.643a.785.785 0 01-.672.273c-.943-.013-2.4-1.863-2.553-2.06l.07.939c.141 1.877.333 4.205.776 6.856.153.918.386 2.172.74 3.656-.742.87-.342 3.055-6.92 2.935-2.077-.038-5.582-2.158-5.972-4.306l.663-1.202c.723-1.311 1.83-3.083 2.986-5.344z" fill="#4359B5" stroke="url(#ipaint3_linear)" stroke-width=".25" stroke-miterlimit="10"/><path opacity=".56" d="M45.947 15.773c.224.41.127.295.734.943.202.215 1.266 1.162 2.167.632a1.218 1.218 0 00.494-.975c-.014-.255-.51-.363-1.431-1.181-.794-.705-1.037-.993-1.482-1.427-.787-.77-.74-1.465-1.106-1.405-.252.042-.516.53-.566.686a48.924 48.924 0 00-1.264 5.892 31.232 31.232 0 01-1.076 4.778 45.561 45.561 0 01-1.588 4.802c1.16.462 2.151 1.079 2.207 1.884.092 1.308-2.327 2.503-2.203 2.762.141.295 3.214-1.84 5.563-.9 1.339.537.807 1.189 2.687 1.934 1.333.528 1.718.461 1.912.43a3.71 3.71 0 003.363-1.495 1.53 1.53 0 00.375-1.695c-.222-.54-.913-.608-1.985-1.228a8.314 8.314 0 01-1.612-1.275 17.393 17.393 0 01-1.319-1.413c-.594-.674-.82-.957-1.35-1.54-.581-.64-1.504-1.677-1.525-1.763a56.813 56.813 0 01-.995-8.447z" fill="url(#ipaint4_linear)"/><path d="M45.503 15.69a21.64 21.64 0 01-.072-2.443c.207.788.369 1.588.486 2.395l-.414.047z" fill="#2C252E"/><path d="M34.382 25.307s.583 3.565 5.972 4.305c6.067.834 6.92-2.935 6.92-2.935l-.256-1.119s-.927 3.516-6.008 2.96a6.851 6.851 0 01-5.844-4.576l-.784 1.365z" fill="url(#ipaint5_linear)" stroke="url(#ipaint6_linear)" stroke-width=".25" stroke-miterlimit="10"/><path opacity=".17" d="M29.238 32.227s2.716 4.75 9.266 2.867c5.293-1.52 5.275-2.17 6.879-2.053 1.603.117 3.844 1.609 5.793 1.585.335.035.672-.023.976-.166l-2.235-1.293s-1.899-1.147-2.859-1.758c-1.164-.74-2.868-.344-7.057 1.082-4.19 1.425-8.815 1.393-10.763-.264z" fill="#000"/><defs><linearGradient id="ipaint2_linear" x1="27.84" y1="28.507" x2="54.857" y2="28.507" gradientUnits="userSpaceOnUse"><stop offset=".006" stop-color="#4D4252"/><stop offset=".695" stop-color="#3B323E"/><stop offset="1" stop-color="#312933"/></linearGradient><linearGradient id="ipaint3_linear" x1="34.163" y1="19.809" x2="49.377" y2="19.809" gradientUnits="userSpaceOnUse"><stop offset=".006" stop-color="#4D4252"/><stop offset=".975" stop-color="#3C313E"/><stop offset="1" stop-color="#3B313D"/></linearGradient><linearGradient id="ipaint4_linear" x1="32.204" y1="24.48" x2="45.355" y2="23.683" gradientUnits="userSpaceOnUse"><stop stop-color="#E9C2FF" stop-opacity="0"/><stop offset="1" stop-opacity=".6"/></linearGradient><linearGradient id="ipaint5_linear" x1="34.49" y1="27.095" x2="47.253" y2="26.321" gradientUnits="userSpaceOnUse"><stop stop-color="#F9BE40"/><stop offset=".1" stop-color="#F9BE40"/><stop offset=".302" stop-color="#F9BE40"/><stop offset=".586" stop-color="#576070"/><stop offset=".703" stop-color="#4B3E52"/></linearGradient><linearGradient id="ipaint6_linear" x1="34.266" y1="26.951" x2="47.457" y2="26.151" gradientUnits="userSpaceOnUse"><stop stop-color="#4E3C57"/><stop offset=".337" stop-color="#3E3244"/><stop offset=".703" stop-color="#29242B"/></linearGradient><radialGradient id="ipaint0_radial" cx="0" cy="0" r="1" gradientUnits="userSpaceOnUse" gradientTransform="matrix(0 30 -30 0 30 30)"><stop stop-color="#fff" stop-opacity=".8"/><stop offset="1" stop-color="#fff" stop-opacity="0"/></radialGradient><radialGradient id="ipaint1_radial" cx="0" cy="0" r="1" gradientUnits="userSpaceOnUse" gradientTransform="rotate(-19.592 124.014 -70.54) scale(16.206)"><stop stop-color="#ECAF7C"/><stop offset="0" stop-color="#EDD2BA"/><stop offset="1" stop-color="#EDE4D9"/></radialGradient></defs></svg><svg fill="none" viewBox="0 0 80 80" id="picture" xmlns="http://www.w3.org/2000/svg"><path d="M72 40c0 17.673-14.327 32-32 32C22.327 72 8 57.673 8 40 8 22.327 22.327 8 40 8c17.673 0 32 14.327 32 32z" fill="#fff"/><path d="M40 80C17.909 80 0 62.091 0 40S17.909 0 40 0s40 17.909 40 40c-.025 22.08-17.92 39.975-40 40zm0-77.333C19.381 2.667 2.667 19.382 2.667 40S19.382 77.333 40 77.333 77.333 60.618 77.333 40C77.31 19.391 60.61 2.69 40 2.667z" fill="#F9BE40"/><path d="M22.667 24h34.666v32H22.667V24z" fill="#FFAE00"/><path d="M33.333 37.333l6.667 8 5.333-2.666 6.667 8H28l5.333-13.334zM52 32a2.667 2.667 0 11-5.333 0A2.667 2.667 0 0152 32z" opacity=".5" fill="#fff"/></svg><svg fill="none" viewBox="0 0 80 80" id="share" xmlns="http://www.w3.org/2000/svg"><path d="M72 40c0 17.673-14.327 32-32 32C22.327 72 8 57.673 8 40 8 22.327 22.327 8 40 8c17.673 0 32 14.327 32 32z" fill="#fff"/><path d="M40 80C17.909 80 0 62.091 0 40S17.909 0 40 0s40 17.909 40 40c-.025 22.08-17.92 39.975-40 40zm0-77.333C19.381 2.667 2.667 19.382 2.667 40S19.382 77.333 40 77.333 77.333 60.618 77.333 40C77.31 19.391 60.61 2.69 40 2.667z" fill="#F9BE40"/><path opacity=".5" d="M50.667 53.333a1.333 1.333 0 01-.595-.133L23.685 40l26.386-13.193a1.333 1.333 0 111.191 2.386L29.648 40l21.614 10.8a1.334 1.334 0 01-.595 2.533z" fill="#F9BE40"/><path d="M33.333 40A6.667 6.667 0 1120 40a6.667 6.667 0 0113.334 0zm24-12A6.667 6.667 0 1144 28a6.667 6.667 0 0113.334 0zm0 24A6.667 6.667 0 1144 52a6.667 6.667 0 0113.334 0z" fill="#FFAE00"/></svg><svg viewBox="0 0 512 512" id="twitter" xmlns="http://www.w3.org/2000/svg"><path d="M512 113.2c-18.8 8.4-39.1 14-60.3 16.5 21.7-13 38.3-33.6 46.2-58.1-20.3 12-42.8 20.8-66.7 25.5C412 76.7 384.7 64 354.5 64c-58 0-105 47-105 105 0 8.2.9 16.2 2.7 23.9-87.3-4.4-164.7-46.2-216.5-109.8-9 15.5-14.2 33.6-14.2 52.8 0 36.4 18.5 68.6 46.7 87.4-17.2-.5-33.4-5.3-47.6-13.1v1.3c0 50.9 36.2 93.4 84.3 103-8.8 2.4-18.1 3.7-27.7 3.7-6.8 0-13.3-.7-19.8-1.9 13.4 41.7 52.2 72.1 98.1 73-36 28.2-81.2 45-130.5 45-8.5 0-16.8-.5-25.1-1.5C46.5 462.7 101.7 480 161 480c193.2 0 298.9-160.1 298.9-298.9 0-4.6-.1-9.1-.3-13.6 20.5-14.7 38.3-33.2 52.4-54.3z"/></svg><svg viewBox="0 0 512 512" id="vimeo" xmlns="http://www.w3.org/2000/svg"><path d="M511.8 137c-2.3 49.8-37.1 118.1-104.4 204.7-69.6 90.4-128.5 135.7-176.7 135.7-29.8 0-55.1-27.5-75.7-82.6-13.8-50.5-27.5-101-41.3-151.5-15.3-55.1-31.7-82.6-49.3-82.6-3.8 0-17.2 8.1-40.2 24.1l-24.1-31c25.3-22.2 50.2-44.4 74.7-66.6 33.7-29.1 59-44.4 75.9-46 39.8-3.8 64.4 23.4 73.6 81.7 9.9 62.9 16.8 102 20.7 117.3 11.5 52.2 24.1 78.3 37.9 78.3 10.7 0 26.8-16.9 48.3-50.8 21.4-33.8 32.9-59.6 34.5-77.3 3.1-29.2-8.4-43.9-34.5-43.9-12.3 0-24.9 2.8-37.9 8.4 25.2-82.4 73.2-122.4 144.2-120.1 52.5 1.4 77.3 35.5 74.3 102.2z"/></svg></svg>