<svg width="576" height="100" viewBox="0 0 576 100" fill="none" xmlns="http://www.w3.org/2000/svg">
<path d="M574.83 -10.6783C571.045 -26.2739 552.118 -33.7139 542.556 -24.7715C538.952 -32.3411 534.274 -38.6975 528.838 -43.4118C523.402 -48.1261 517.334 -51.0887 511.044 -52.0994C498.483 -54.031 477.836 -45.196 468.692 -32.4978C464.734 -48.8087 444.505 -55.4618 433.148 -50.3825C432.425 -56.8566 430.631 -62.9776 427.92 -68.2182C425.21 -73.4587 421.664 -77.6617 417.589 -80.4647C409.428 -85.9375 392.443 -90.0151 384.823 -83.0758C406.479 -113.337 413.042 -162.699 403.922 -204.335C394.803 -245.97 371.55 -279.451 344.118 -297.335C316.686 -315.22 285.518 -318.368 255.825 -311.929C242.183 -308.996 228.295 -303.774 217.406 -291.433C206.517 -279.093 194.055 -256.952 197.299 -237.457C194.788 -241.021 191.566 -243.336 188.095 -244.069C184.624 -244.801 181.082 -243.914 177.979 -241.535C171.858 -236.599 166.377 -224.222 168.147 -214.314C158.401 -221.893 147.171 -224.408 136.311 -221.442C125.45 -218.477 115.61 -210.208 108.416 -198.003C94.5284 -172.965 86.933 -134.477 101.509 -110.44C97.9942 -121.707 70.6608 -142.632 55.3226 -105.611C52.4461 -112.109 48.2094 -117.088 43.2386 -119.813C38.2678 -122.538 32.8265 -122.863 27.7188 -120.741C17.6162 -116.198 7.5628 -92.3044 8.05441 -76.9235C3.56367 -83.0573 -1.77535 -87.7251 -7.60553 -90.6146C-13.4357 -93.5042 -19.6227 -94.5488 -25.7526 -93.6786C-31.8826 -92.8085 -37.8142 -90.0437 -43.1508 -85.5692C-48.4874 -81.0946 -53.1059 -75.0135 -56.6974 -67.7324C-60.289 -60.4514 -62.7708 -52.1383 -63.9768 -43.3492C-65.1828 -34.56 -65.0854 -25.4974 -63.6908 -16.7675C-62.2963 -8.0376 -59.6369 0.158356 -55.8905 7.27225C-52.1441 14.3861 -47.397 20.2538 -41.9668 24.4831C-38.5356 34.5209 -33.4946 43.2097 -27.2697 49.8152C-21.0448 56.4208 -13.8189 60.7491 -6.20226 62.4346C1.38414 63.7997 9.08486 62.4656 16.239 58.5468C23.3931 54.6281 29.7869 48.2415 34.8716 39.9355C40.9676 53.5637 60.8286 55.7456 69.1122 44.8359C73.5121 55.3879 88.1866 57.4626 94.6267 49.4144C113.234 80.4981 143.788 97.9895 172.129 99.778C186.318 100.573 200.472 97.2185 213.755 89.9134C227.037 82.6083 239.178 71.5008 249.459 57.248C256.341 72.3784 270.426 76.5278 282.888 76.5636C289.14 76.4946 295.286 74.2191 300.801 69.9328C306.315 65.6464 311.032 59.4771 314.548 51.9541C328.288 71.6631 358.448 72.9866 370.886 51.4891C389.764 75.5262 425.799 67.1561 441.039 38.147C449.593 50.6306 469.036 45.3009 474.567 29.6339C487.275 55.2806 512.224 63.9369 533.166 55.6026C554.109 47.2683 582.081 19.1534 574.83 -10.6783Z" fill="#F5F5F5"/>
<path d="M531.666 37.754C508.29 39.3994 483.881 22.4088 469.084 -3.95332C462.859 9.20533 453.369 18.3355 442.611 21.5146C432.931 24.0825 422.946 22.4015 413.925 16.6857C417.312 14.5787 420.379 11.515 422.946 7.67178C426.764 2.18946 429.064 -5.14274 429.411 -12.9315C425.79 -8.82007 421.904 -5.22648 417.809 -2.20065C410.628 3.22002 402.586 5.76316 394.507 5.16787C389.906 4.82392 385.337 3.84174 380.865 2.23474C383.411 9.08348 387.576 14.3574 392.589 17.0792C397.079 19.6402 401.947 20.4778 406.723 19.5115C402.652 26.7414 396.826 31.416 390.451 32.5673C382.301 33.6559 374.121 31.0176 367.05 25.02C361.558 20.8567 356.217 16.2839 351.049 11.3202C352.47 10.1107 353.755 8.5907 354.858 6.81334C357.164 3.28852 358.426 -1.4127 358.373 -6.27831C356.359 -3.37027 354.085 -0.86805 351.614 1.1617C349.48 2.94566 347.165 4.22543 344.756 4.95326C342.326 5.64149 339.836 5.7502 337.382 5.27517C334.57 4.77668 331.817 3.72999 329.196 2.16324C330.429 6.68106 332.829 10.3156 335.882 12.2861C338.709 14.218 341.857 14.9257 344.953 14.3249C343.949 20.5714 341.502 26.1274 338.021 30.0635C332.859 35.5363 324.256 34.642 320.47 27.1304C314.898 32.0084 308.567 34.7536 302.068 35.1101C295.569 35.4666 289.114 33.4228 283.305 29.1693C272.858 21.3 265.804 4.66716 263.96 -12.4307C266.38 -13.9752 268.68 -15.894 270.818 -18.1538C275.343 -22.8519 279.088 -28.9625 281.781 -36.0386C276.324 -33.9282 271.555 -31.1382 266.885 -28.8847C262.513 -26.6583 258.014 -25.0063 253.44 -23.9485C249.095 -23.0505 244.681 -23.1713 240.363 -24.3062C235.531 -25.5305 230.946 -28.304 226.942 -32.4258C227.527 -28.2074 228.778 -24.2444 230.595 -20.8491C232.412 -17.4538 234.746 -14.7188 237.413 -12.8599C241.409 -9.79248 245.849 -8.14974 250.367 -8.06679L249.875 -7.74487C246.389 5.83943 240.657 17.9648 233.185 27.5596C225.631 37.1696 215.798 42.1105 205.778 41.3309C195.946 40.1147 185.376 30.9577 181.394 17.723C175.444 25.3508 168.392 30.9371 160.76 34.0697C153.128 37.2023 145.11 37.8012 137.297 35.8224C130.362 33.6763 123.921 28.9785 118.589 22.1777C113.257 15.3769 109.213 6.70037 106.842 -3.02327C108.789 -4.11419 110.658 -5.48001 112.422 -7.10105C117.811 -11.853 121.882 -19.2083 123.925 -27.8831C119.166 -23.806 114.092 -20.564 108.808 -18.2253C104.027 -16.1137 99.0563 -15.0529 94.06 -15.0777C89.0473 -15.1688 84.0737 -16.375 79.3117 -18.6546C74.0572 -21.1422 69.024 -24.5281 64.3177 -28.7416C66.272 -20.0373 70.2425 -12.5905 75.5509 -7.67337C77.7735 -5.56125 80.1575 -3.83268 82.6547 -2.52256C80.4189 5.00584 77.2246 11.8509 73.2404 17.6515C68.323 24.8115 61.7526 29.0566 54.805 29.5627C51.1809 29.6635 47.5953 28.4668 44.3636 26.078C41.1318 23.6891 38.353 20.1813 36.2714 15.863C31.8005 26.8913 25.095 35.6372 17.0741 40.9017C13.0594 43.4655 8.71053 44.7323 4.32703 44.615C-0.0564651 44.4977 -4.37037 42.999 -8.31752 40.2221C-16.0604 34.3201 -22.3284 21.6934 -21.8859 8.99523C-28.075 10.6201 -34.4429 10.0263 -40.4389 7.26538C-46.4349 4.50443 -51.8784 -0.34058 -56.2985 -6.85064C-60.2833 -12.948 -63.2593 -20.2883 -65 -28.3123C-64.5741 -17.4054 -62.2565 -6.83309 -58.2634 2.41791C-54.2703 11.6689 -48.7318 19.297 -42.1648 24.5907C-38.7336 34.6285 -33.6926 43.3173 -27.4677 49.9229C-21.2428 56.5284 -14.0169 60.8567 -6.40025 62.5422C1.18615 63.9073 8.88688 62.5733 16.041 58.6545C23.1951 54.7357 29.589 48.3491 34.6737 40.0431C40.7696 53.6713 60.6306 55.8533 68.9142 44.9436C73.3141 55.4956 87.9886 57.5702 94.4287 49.522C113.036 80.6058 143.59 98.0971 171.931 99.8856C186.12 100.68 200.274 97.3261 213.557 90.021C226.839 82.7159 238.98 71.6084 249.261 57.3556C256.143 72.4861 270.228 76.6354 282.69 76.6712C288.942 76.6022 295.089 74.3269 300.603 70.0405C306.117 65.7541 310.834 59.5847 314.35 52.0618C328.09 71.7708 358.251 73.0942 370.688 51.5967C389.566 75.6339 425.601 67.2637 440.841 38.2547C449.395 50.7382 468.838 45.4086 474.369 29.7415C487.077 55.3883 512.026 64.0445 532.968 55.7102C547.348 49.9513 565.095 34.785 572.42 16.1491C560.566 28.9585 546.404 36.4659 531.666 37.754Z" fill="#E6E6E6"/>
</svg>
