<svg width="425" height="219" viewBox="0 0 425 219" fill="none" xmlns="http://www.w3.org/2000/svg">
<g opacity="0.3">
<path d="M423.666 262.322C419.355 248.878 397.801 242.465 386.911 250.173C382.807 243.649 377.479 238.169 371.288 234.106C365.097 230.042 358.187 227.488 351.024 226.617C336.719 224.952 313.205 232.568 302.791 243.513C298.284 229.454 275.246 223.719 262.313 228.097C261.489 222.516 259.446 217.24 256.359 212.723C253.272 208.206 249.234 204.583 244.593 202.167C235.299 197.449 215.956 193.934 207.278 199.916C231.94 173.831 239.414 131.282 229.029 95.3922C218.643 59.5027 192.162 30.6431 160.921 15.2267C129.681 -0.189787 94.185 -2.90304 60.3691 2.64688C44.8328 5.17518 29.0166 9.67682 16.6155 20.3142C4.21448 30.9515 -9.97815 50.0371 -6.28302 66.841C-9.1424 63.7687 -12.8122 61.7735 -16.7654 61.142C-20.7186 60.5104 -24.7518 61.275 -28.2858 63.326C-35.2561 67.5809 -41.4986 78.2492 -39.4831 86.7899C-50.5815 80.2567 -63.3714 78.0892 -75.7395 80.6456C-88.1076 83.202 -99.3139 90.3292 -107.507 100.85C-123.323 122.433 -131.973 155.609 -115.373 176.329C-119.376 166.616 -150.505 148.579 -167.972 180.491C-171.248 174.89 -176.073 170.597 -181.734 168.249C-187.395 165.9 -193.592 165.62 -199.409 167.449C-210.914 171.365 -222.363 191.961 -221.804 205.219C-226.918 199.932 -232.998 195.908 -239.638 193.417C-246.277 190.927 -253.323 190.026 -260.305 190.776C-267.286 191.526 -274.041 193.91 -280.118 197.767C-286.196 201.624 -291.456 206.865 -295.546 213.142C-299.636 219.418 -302.462 226.584 -303.836 234.16C-305.209 241.736 -305.098 249.548 -303.51 257.073C-301.922 264.598 -298.894 271.663 -294.627 277.795C-290.36 283.927 -284.954 288.985 -278.77 292.63C-274.862 301.283 -269.121 308.772 -262.032 314.466C-254.943 320.16 -246.714 323.891 -238.04 325.344C-229.4 326.521 -220.63 325.371 -212.483 321.993C-204.335 318.615 -197.054 313.11 -191.263 305.95C-184.321 317.697 -161.702 319.578 -152.268 310.174C-147.257 319.27 -130.545 321.058 -123.211 314.121C-102.02 340.915 -67.2245 355.992 -34.9482 357.534C-18.7891 358.219 -2.6694 355.327 12.4573 349.03C27.584 342.733 41.4105 333.159 53.1188 320.873C60.9569 333.915 76.9971 337.492 91.1898 337.523C98.3093 337.464 105.309 335.502 111.589 331.807C117.869 328.113 123.242 322.795 127.245 316.31C142.893 333.299 177.241 334.44 191.406 315.909C212.905 336.629 253.943 329.414 271.299 304.408C281.04 315.169 303.183 310.575 309.482 297.07C323.954 319.177 352.367 326.639 376.218 319.455C400.068 312.271 431.924 288.036 423.666 262.322Z" fill="#F5F5F5"/>
<path d="M-65.5475 151.97C-58.0422 140.756 -47.898 132.014 -36.2105 126.687C-24.3279 121.055 -11.3758 118.706 1.51897 119.845C14.4137 120.984 26.8603 125.577 37.7759 133.223C48.5062 140.539 57.2179 150.945 62.9698 163.316C54.0194 154.865 44.0179 147.867 33.2689 142.535C12.4498 132.211 -10.9718 130.141 -33.0192 136.677C-44.4768 140.014 -55.4338 145.165 -65.5475 151.97Z" fill="white"/>
<path d="M110.307 89.6568C117.596 82.3554 126.882 77.9301 136.705 77.077C146.836 75.9565 157.043 78.1452 166.053 83.3704C175.063 88.5956 182.478 96.6261 187.373 106.461C192.333 115.843 194.304 126.783 192.971 137.54C189.755 128.413 185.207 119.924 179.506 112.412C174.23 105.389 167.739 99.5911 160.411 95.3565C153.082 91.1218 145.062 88.5346 136.817 87.7452C127.945 86.7747 118.988 87.4206 110.307 89.6568Z" fill="white"/>
<path d="M60.3703 2.89431C44.8341 5.4226 29.0179 9.92424 16.6168 20.5616C4.21578 31.1989 -9.97685 50.2845 -6.28173 67.0884C-9.14109 64.0161 -12.8109 62.0209 -16.7641 61.3894C-20.7173 60.7578 -24.7505 61.5225 -28.2845 63.5735C-35.2548 67.8284 -41.4973 78.4966 -39.4818 87.0373C-50.5802 80.5041 -63.37 78.3366 -75.7382 80.893C-88.1063 83.4494 -99.3126 90.5766 -107.506 101.097C-113.477 109.212 -118.093 118.43 -121.138 128.323C-114.73 118.999 -106.492 111.392 -97.04 106.068C-87.5876 100.744 -77.1652 97.842 -66.5514 97.5781C-55.9376 97.3142 -45.4069 99.6956 -35.746 104.544C-26.0852 109.393 -17.544 116.583 -10.7606 125.578H6.93112C0.128738 94.0363 9.14261 57.746 28.598 33.5422C43.1428 15.7349 62.8363 4.02321 84.3327 0.396851C76.3096 0.743437 68.31 1.57718 60.3703 2.89431Z" fill="white"/>
</g>
</svg>
