<svg width="212" height="133" viewBox="0 0 212 133" fill="none" xmlns="http://www.w3.org/2000/svg">
<g opacity="0.3">
<path d="M696.77 175.794C695.873 172.707 694.195 169.972 691.937 167.916C689.679 165.859 686.936 164.568 684.036 164.196C678.216 163.529 670.57 164.776 667.778 170.459C663.603 159.238 641.917 153.062 634.532 162.022C628.733 150.998 620.602 141.711 610.844 134.966C601.085 128.222 589.994 124.222 578.531 123.313C555.646 121.747 523.731 130.33 510.135 150.714C515.102 129.509 514.767 107.201 509.166 86.1923C503.565 65.1838 492.91 46.2723 478.349 31.4959C463.788 16.7195 445.874 6.63859 426.538 2.33977C407.201 -1.95905 387.175 -0.31278 368.619 7.10111C331.72 21.8306 301.475 60.7129 295.995 103.858C280.964 100.668 262.071 116.383 261.262 133.375C256.019 116.928 246.494 102.584 233.897 92.1651C221.301 81.7466 206.201 75.724 190.517 74.8625C159.202 73.8187 123.973 97.4207 112.23 129.634C111.508 126.798 110.099 124.235 108.157 122.226C106.216 120.217 103.816 118.838 101.218 118.239C95.9987 117.108 85.8214 120.791 82.6117 125.459C79.9621 121.499 76.323 118.491 72.1473 116.81C67.9715 115.13 63.4432 114.85 59.1256 116.007C50.5402 118.558 41.2763 128.822 40.3629 138.652C35.6488 137.276 30.6663 137.564 26.1061 139.475C21.5459 141.387 17.6338 144.828 14.9124 149.32C12.1909 153.813 10.7949 159.135 10.9178 164.549C11.0407 169.963 12.6764 175.2 15.5983 179.535C7.19552 179.535 -1.85965 195.627 0.332375 204.615C0.990398 206.794 2.0624 208.791 3.47566 210.469C4.88891 212.148 6.6104 213.469 8.52347 214.343C10.4365 215.218 12.4964 215.625 14.5636 215.538C16.6307 215.45 18.6567 214.87 20.5043 213.836C35.5092 230.74 58.2123 241.816 79.5845 240.598C90.293 239.914 100.755 236.752 110.3 231.315C119.844 225.877 128.261 218.285 135.011 209.023C155.47 228.652 187.751 234.422 210.688 218.475C226.946 240.134 260.27 242.773 279.111 223.984C318.693 255.028 366.158 271.229 414.599 270.231C462.108 268.747 507.901 250.179 545.103 217.315C557.055 237.177 585.342 241.323 601.835 226.014C610.081 241.352 633.671 239.902 649.72 238.714C664.151 237.67 678.947 233.639 690.064 223.375C701.18 213.111 700.893 191.22 696.77 175.794Z" fill="#F5F5F5"/>
<path d="M202.862 145.262C201.97 141.209 200.279 137.426 197.91 134.187C195.542 130.948 192.556 128.335 189.168 126.534C185.78 124.734 182.074 123.792 178.318 123.776C174.563 123.761 170.851 124.672 167.451 126.444C180.838 129.286 193.651 134.099 202.862 145.262Z" fill="white"/>
</g>
</svg>
