<svg width="389" height="308" viewBox="0 0 389 308" fill="none" xmlns="http://www.w3.org/2000/svg">
<g opacity="0.3">
<path d="M724.134 225.168C719.873 213.632 698.423 208.117 687.623 214.747C683.552 209.133 678.262 204.418 672.11 200.92C665.957 197.422 659.087 195.223 651.965 194.472C637.757 193.053 614.389 199.581 604.058 208.968C599.563 196.905 576.664 191.978 563.841 195.831C563.032 191.03 561.005 186.489 557.935 182.603C554.865 178.716 550.845 175.602 546.224 173.529C537.001 169.474 517.787 166.473 509.16 171.501C533.678 149.199 541.112 112.584 530.76 81.7867C520.407 50.9898 494.142 26.2752 463.106 13.0766C432.07 -0.122107 396.816 -2.49421 363.224 2.25001C347.781 4.43965 332.06 8.33235 319.748 17.4356C307.436 26.5388 293.313 43.2044 297.019 57.5385C294.171 54.8998 290.519 53.1865 286.586 52.6439C282.652 52.1012 278.639 52.7571 275.122 54.5176C268.199 58.1872 262.021 67.331 263.874 74.6501C242.211 62.9112 212.006 68.3245 196.285 86.8148C180.565 105.305 171.98 133.831 188.489 151.693C184.505 143.36 153.576 127.769 136.215 155.282C132.971 150.468 128.183 146.778 122.562 144.759C116.941 142.739 110.785 142.498 105.009 144.07C93.5485 147.435 82.2162 165.094 82.834 176.509C77.7647 171.9 71.7151 168.381 65.0942 166.188C58.4732 163.995 51.435 163.18 44.4548 163.798C37.4746 164.416 30.715 166.453 24.6327 169.771C18.5504 173.088 13.2869 177.61 9.19783 183.029C5.10876 188.449 2.28935 194.641 0.929958 201.187C-0.429434 207.732 -0.297126 214.479 1.31798 220.972C2.93309 227.465 5.99336 233.553 10.2921 238.823C14.5908 244.094 20.0279 248.425 26.2361 251.524C30.1169 258.955 35.8212 265.386 42.866 270.273C49.9109 275.161 58.0892 278.362 66.7088 279.605C75.2946 280.621 84.0114 279.64 92.1108 276.744C100.21 273.848 107.45 269.125 113.21 262.98C120.09 273.117 142.563 274.678 151.936 266.609C156.92 274.394 173.514 275.915 180.799 269.994C201.866 292.986 236.46 305.921 268.476 307.259C284.53 307.844 300.545 305.361 315.575 299.957C330.605 294.552 344.344 286.336 355.982 275.793C363.757 286.984 379.69 289.985 393.792 289.985C400.87 289.934 407.829 288.246 414.071 285.068C420.312 281.889 425.648 277.315 429.621 271.738C445.171 286.315 479.295 287.289 493.354 271.393C514.656 289.194 555.469 282.97 572.723 261.499C582.394 270.765 604.399 266.852 610.661 255.235C625.04 274.212 653.264 280.598 676.951 274.435C700.638 268.271 732.335 247.206 724.134 225.168Z" fill="#F5F5F5"/>
<path d="M675.29 260.973C648.833 262.21 621.227 249.639 604.484 230.115C597.484 239.843 586.794 246.609 574.662 248.991C563.67 250.905 552.328 249.648 542.092 245.382C545.923 243.823 549.392 241.556 552.295 238.711C556.612 234.653 559.212 229.228 559.602 223.465C555.509 226.559 551.115 229.274 546.48 231.575C542.429 233.537 538.135 235.008 533.699 235.954C529.243 236.862 524.683 237.223 520.13 237.029C514.869 236.766 509.647 236.019 504.538 234.798C507.413 239.874 512.13 243.78 517.808 245.787C522.892 247.678 528.401 248.292 533.806 247.571C529.199 252.93 522.6 256.394 515.38 257.242C506.164 258.057 496.91 256.1 488.924 251.647C482.698 248.585 476.653 245.201 470.818 241.509C472.412 240.628 473.849 239.513 475.078 238.205C477.697 235.601 479.128 232.117 479.061 228.513C476.773 230.653 474.203 232.5 471.414 234.008C468.992 235.321 466.368 236.265 463.639 236.806C460.909 237.313 458.112 237.401 455.353 237.069C452.162 236.688 449.039 235.904 446.065 234.738C447.47 238.083 450.191 240.774 453.649 242.239C456.84 243.672 460.399 244.193 463.895 243.739C462.775 248.365 460.014 252.483 456.077 255.397C450.219 259.452 440.484 258.783 436.203 253.228C429.9 256.834 422.741 258.863 415.392 259.125C408.043 259.388 400.744 257.875 394.175 254.728C382.332 248.909 374.344 236.603 372.277 223.952C375.011 222.795 377.61 221.368 380.031 219.694C385.161 216.206 389.405 211.669 392.45 206.414C386.272 207.975 380.862 210.023 375.6 211.665C370.648 213.313 365.551 214.534 360.37 215.315C355.459 215.986 350.467 215.897 345.587 215.051C340.109 214.135 334.917 212.056 330.399 208.969C331.272 215.051 336.299 220.464 342.242 223.445C346.763 225.715 351.787 226.925 356.898 226.972L356.344 227.236C352.38 237.278 345.893 246.243 337.45 253.35C328.89 260.439 317.765 264.075 306.435 263.487C295.251 262.595 283.365 255.803 278.849 246.03C265.323 257.1 246.556 262.737 229.047 259.412C221.203 257.828 213.917 254.355 207.886 249.325C201.855 244.295 197.282 237.876 194.602 230.683C196.826 229.859 198.966 228.841 200.993 227.642C207.088 224.123 211.7 218.686 214.029 212.274C208.658 215.277 202.94 217.679 196.988 219.43C191.604 220.962 186.014 221.741 180.394 221.742C174.771 221.659 169.193 220.778 163.843 219.126C157.875 217.285 152.155 214.781 146.802 211.665C149.033 218.111 153.552 223.616 159.583 227.236C162.078 228.82 164.768 230.107 167.592 231.068C165.071 236.641 161.457 241.706 156.942 245.99C151.377 251.286 143.946 254.428 136.088 254.809C128.313 254.951 119.046 251.018 115.127 244.672C110.107 252.902 102.521 259.442 93.4208 263.385C88.8816 265.285 83.963 266.224 79.0051 266.137C74.0472 266.049 69.1685 264.938 64.7065 262.879C55.9303 258.52 48.8582 249.173 49.3482 239.766C42.3392 240.988 35.1224 240.559 28.3277 238.516C21.5329 236.473 15.3665 232.879 10.3666 228.047C5.8577 223.562 2.49081 218.152 0.525391 212.233C0.999823 220.301 3.61711 228.123 8.13235 234.967C12.6476 241.81 18.9131 247.451 26.3427 251.363C30.2235 258.793 35.9277 265.224 42.9726 270.112C50.0174 274.999 58.1957 278.2 66.8153 279.443C75.4012 280.46 84.1179 279.478 92.2174 276.582C100.317 273.686 107.557 268.963 113.316 262.818C120.197 272.955 142.67 274.516 152.042 266.447C157.027 274.232 173.621 275.753 180.906 269.833C201.973 292.824 236.566 305.759 268.582 307.097C284.637 307.682 300.652 305.2 315.682 299.795C330.711 294.391 344.451 286.174 356.088 275.631C363.863 286.823 379.797 289.823 393.898 289.823C400.977 289.772 407.936 288.084 414.177 284.906C420.419 281.727 425.755 277.153 429.727 271.576C445.277 286.154 479.402 287.127 493.461 271.232C514.762 289.033 555.576 282.808 572.83 261.338C582.501 270.603 604.505 266.69 610.768 255.073C625.146 274.05 653.371 280.436 677.058 274.273C693.353 270.035 713.398 258.783 721.791 245.017C708.266 254.553 692.097 260.101 675.29 260.973Z" fill="#E6E6E6"/>
<path d="M238.125 130.385C245.586 120.772 255.661 113.278 267.265 108.711C279.066 103.871 291.931 101.851 304.74 102.826C317.548 103.802 329.912 107.743 340.755 114.307C351.46 120.573 360.154 129.514 365.89 140.157C356.968 132.872 346.989 126.849 336.26 122.275C315.582 113.385 292.303 111.6 270.396 117.227C259.033 120.12 248.165 124.551 238.125 130.385Z" fill="white"/>
<path d="M205.678 187.883C205.327 182.281 206.938 176.726 210.258 172.089C213.585 167.231 218.34 163.411 223.93 161.104C229.52 158.797 235.699 158.104 241.699 159.113C247.529 159.975 252.889 162.665 256.93 166.757C251.865 165.212 246.569 164.472 241.252 164.567C236.307 164.624 231.423 165.621 226.888 167.497C222.352 169.373 218.256 172.093 214.838 175.495C211.083 179.111 207.987 183.298 205.678 187.883Z" fill="white"/>
<path d="M363.226 2.41244C347.782 4.60208 332.062 8.49479 319.749 17.598C307.437 26.7012 293.314 43.2046 297.021 57.5387C294.173 54.9 290.521 53.1867 286.587 52.6441C282.654 52.1014 278.641 52.7573 275.123 54.5178C268.2 58.1875 262.023 67.3312 263.876 74.6503C242.212 62.9114 212.007 68.3247 196.287 86.815C190.368 93.7589 185.788 101.646 182.76 110.11C189.129 102.109 197.314 95.5807 206.705 91.0124C216.096 86.4441 226.45 83.9538 236.993 83.7277C247.537 83.5016 257.998 85.5454 267.596 89.7065C277.193 93.8676 285.679 100.039 292.42 107.758H309.972C303.22 80.6718 312.102 49.6114 331.508 28.6881C345.962 13.4115 365.535 3.37993 386.891 0.303894C378.969 0.598582 371.068 1.30247 363.226 2.41244Z" fill="white"/>
<path d="M168.743 140.116C158.093 138.089 145.312 140.745 136.216 155.119C132.972 150.306 128.184 146.616 122.563 144.596C116.942 142.577 110.786 142.335 105.01 143.907C93.5494 147.273 82.2171 164.932 82.8348 176.347C76.2738 170.63 68.2325 166.678 59.5364 164.896C50.8403 163.115 41.8028 163.568 33.3516 166.209C39.999 165.846 46.6639 166.531 53.0767 168.237C66.8223 171.974 78.7598 180.172 86.8182 191.411C88.6288 182.956 90.8654 170.285 95.9564 163.148C101.047 156.011 110.186 150.781 119.047 152.585C127.099 154.247 132.723 160.999 137.643 167.304C138.429 159.039 142.553 151.386 149.146 145.955C154.729 141.83 161.686 139.757 168.743 140.116Z" fill="white"/>
<path d="M52.1191 211.625C54.455 209.199 57.5723 207.58 60.9806 207.023C64.4864 206.38 68.1133 206.731 71.4115 208.032C74.7097 209.333 77.5339 211.527 79.5341 214.342C81.5257 217.026 82.5225 220.264 82.3672 223.547C80.9793 220.889 79.1446 218.464 76.9353 216.37C74.8681 214.434 72.4412 212.88 69.7781 211.788C67.0713 210.743 64.1782 210.206 61.2575 210.206C58.1504 210.201 55.0632 210.68 52.1191 211.625Z" fill="white"/>
</g>
</svg>
