<svg width="271" height="107" viewBox="0 0 271 107" fill="none" xmlns="http://www.w3.org/2000/svg">
<g opacity="0.3">
<path d="M269.323 11.3215C265.05 -2.12161 243.683 -8.53485 232.888 -0.82663C228.819 -7.35149 223.538 -12.8306 217.401 -16.8943C211.264 -20.958 204.414 -23.5116 197.313 -24.3829C183.133 -26.0479 159.823 -18.4322 149.5 -7.48656C145.033 -21.5464 122.195 -27.2813 109.375 -22.903C108.558 -28.4836 106.532 -33.7598 103.472 -38.2771C100.412 -42.7944 96.4094 -46.4173 91.809 -48.8335C82.5961 -53.5509 63.4212 -57.0658 54.8188 -51.0842C79.2662 -77.1689 86.6754 -119.718 76.3802 -155.608C66.0851 -191.497 39.834 -220.357 8.86548 -235.773C-22.1031 -251.19 -57.2896 -253.903 -90.8112 -248.353C-106.212 -245.825 -121.891 -241.323 -134.184 -230.686C-146.477 -220.048 -160.546 -200.963 -156.883 -184.159C-159.717 -187.231 -163.355 -189.227 -167.274 -189.858C-171.193 -190.49 -175.191 -189.725 -178.694 -187.674C-185.604 -183.419 -191.792 -172.751 -189.794 -164.21C-200.796 -170.743 -213.474 -172.911 -225.735 -170.354C-237.995 -167.798 -249.104 -160.671 -257.226 -150.15C-272.904 -128.567 -281.479 -95.3912 -265.023 -74.6715C-268.991 -84.3838 -299.849 -102.421 -317.165 -70.509C-320.412 -76.1104 -325.195 -80.4025 -330.807 -82.7512C-336.418 -85.0998 -342.561 -85.3803 -348.328 -83.5513C-359.733 -79.6355 -371.082 -59.0391 -370.527 -45.781C-375.597 -51.0682 -381.624 -55.0919 -388.206 -57.5826C-394.788 -60.0733 -401.773 -60.9737 -408.693 -60.2237C-415.613 -59.4737 -422.31 -57.0904 -428.334 -53.2334C-434.359 -49.3764 -439.573 -44.1346 -443.628 -37.8584C-447.682 -31.5822 -450.484 -24.4164 -451.846 -16.8403C-453.207 -9.26416 -453.097 -1.45232 -451.523 6.07275C-449.948 13.5978 -446.946 20.6627 -442.717 26.7947C-438.487 32.9268 -433.128 37.9847 -426.998 41.6302C-423.124 50.2827 -417.433 57.7724 -410.406 63.4663C-403.378 69.1602 -395.221 72.8911 -386.622 74.344C-378.058 75.5207 -369.364 74.3708 -361.287 70.9928C-353.211 67.6148 -345.993 62.1097 -340.252 54.9501C-333.371 66.6974 -310.949 68.5782 -301.597 59.1742C-296.63 68.2699 -280.064 70.0582 -272.793 63.1208C-251.787 89.9146 -217.294 104.992 -185.299 106.534C-169.28 107.219 -153.301 104.327 -138.306 98.0304C-123.311 91.7335 -109.605 82.1589 -97.9984 69.8732C-90.2285 82.9155 -74.3279 86.4922 -60.2588 86.523C-53.2013 86.4635 -46.2621 84.5021 -40.0368 80.8073C-33.8115 77.1125 -28.486 71.7947 -24.5173 65.31C-9.00528 82.2989 25.0435 83.4397 39.0847 64.9091C60.3964 85.6288 101.077 78.4139 118.282 53.4084C127.939 64.1691 149.889 59.575 156.133 46.0702C170.479 68.1774 198.645 75.6389 222.288 68.4549C245.93 61.2708 277.509 37.0362 269.323 11.3215Z" fill="#F5F5F5"/>
<path d="M220.594 53.0696C194.204 54.4879 166.649 39.8422 149.944 17.1184C142.917 28.461 132.203 36.3311 120.057 39.0714C109.13 41.2849 97.8572 39.836 87.6735 34.9089C91.4973 33.0928 94.9588 30.4519 97.8576 27.1391C102.167 22.4134 104.765 16.0931 105.156 9.37932C101.068 12.9233 96.6813 16.021 92.0579 18.6292C83.9514 23.3017 74.872 25.4939 65.7513 24.9808C60.5569 24.6843 55.3998 23.8376 50.3502 22.4524C53.2245 28.356 57.9271 32.902 63.5869 35.2482C68.6557 37.4557 74.1504 38.1777 79.5428 37.3448C74.9465 43.5769 68.3691 47.6063 61.1726 48.5987C51.972 49.5371 42.7371 47.2629 34.7549 42.0931C28.5546 38.5043 22.525 34.5627 16.69 30.284C18.2943 29.2414 19.7449 27.9312 20.9911 26.3991C23.5939 23.3608 25.0189 19.3084 24.9594 15.1143C22.6847 17.621 20.1182 19.7779 17.3282 21.5275C14.9194 23.0652 12.3061 24.1684 9.58603 24.7958C6.84296 25.389 4.03131 25.4827 1.26114 25.0732C-1.91339 24.6435 -5.02142 23.7413 -7.97943 22.3908C-6.58856 26.2851 -3.87857 29.418 -0.431549 31.1166C2.75919 32.7819 6.31381 33.3919 9.80807 32.874C8.6749 38.2584 5.91248 43.0476 1.98267 46.4405C-3.84476 51.1579 -13.5571 50.3871 -17.8305 43.9122C-24.1219 48.1169 -31.2691 50.4833 -38.6057 50.7906C-45.9423 51.0979 -53.2295 49.3362 -59.788 45.6697C-71.5815 38.8864 -79.5457 24.5491 -81.6269 9.81102C-78.8945 8.47966 -76.2989 6.82571 -73.8848 4.87774C-68.7768 0.828077 -64.5482 -4.43919 -61.5084 -10.5387C-67.6689 -8.71956 -73.0523 -6.31459 -78.3247 -4.37212C-83.2599 -2.45303 -88.3398 -1.02901 -93.5037 -0.117167C-98.4079 0.656839 -103.392 0.552725 -108.267 -0.425515C-113.722 -1.48086 -118.897 -3.87161 -123.418 -7.42455C-122.757 -3.78832 -121.345 -0.372276 -119.294 2.55446C-117.243 5.48119 -114.608 7.83865 -111.596 9.44105C-107.085 12.0851 -102.073 13.5011 -96.9724 13.5726L-97.5275 13.8501C-101.463 25.5596 -107.935 36.0115 -116.369 44.2822C-124.898 52.5659 -135.999 56.8249 -147.31 56.1528C-158.41 55.1045 -170.342 47.2113 -174.838 35.8031C-181.556 42.3782 -189.516 47.1935 -198.133 49.8938C-206.749 52.594 -215.801 53.1103 -224.621 51.4046C-232.45 49.5547 -239.721 45.5052 -245.741 39.643C-251.76 33.7808 -256.326 26.3017 -259.002 17.9201C-256.804 16.9797 -254.695 15.8024 -252.703 14.4051C-246.619 10.3089 -242.023 3.96876 -239.716 -3.5088C-245.089 0.00566769 -250.818 2.80016 -256.783 4.81611C-262.18 6.63626 -267.792 7.55069 -273.432 7.52933C-279.091 7.45081 -284.706 6.41102 -290.082 4.44604C-296.014 2.30179 -301.696 -0.616825 -307.009 -4.24876C-304.803 3.25423 -300.321 9.67323 -294.328 13.9118C-291.819 15.7324 -289.127 17.2224 -286.308 18.3517C-288.832 24.8411 -292.438 30.7414 -296.936 35.7415C-302.488 41.9133 -309.905 45.5726 -317.748 46.0088C-321.84 46.0957 -325.888 45.0642 -329.536 43.005C-333.185 40.9459 -336.322 37.9222 -338.672 34.1998C-343.719 43.7061 -351.289 51.2449 -360.344 55.7829C-364.876 57.9929 -369.786 59.0848 -374.735 58.9837C-379.683 58.8825 -384.553 57.5907 -389.009 55.197C-397.751 50.1096 -404.827 39.2256 -404.327 28.2799C-411.314 29.6805 -418.503 29.1687 -425.272 26.7888C-432.041 24.4089 -438.187 20.2325 -443.177 14.6209C-447.675 9.36508 -451.035 3.03789 -453 -3.87878C-452.519 5.52291 -449.903 14.6361 -445.395 22.6103C-440.887 30.5846 -434.634 37.1599 -427.221 41.723C-423.347 50.3755 -417.656 57.8651 -410.629 63.559C-403.601 69.2529 -395.444 72.9839 -386.845 74.4367C-378.28 75.6134 -369.587 74.4635 -361.51 71.0855C-353.434 67.7076 -346.216 62.2025 -340.475 55.0428C-333.593 66.7901 -311.172 68.6709 -301.82 59.2669C-296.853 68.3626 -280.286 70.1509 -273.016 63.2135C-252.01 90.0073 -217.517 105.085 -185.521 106.626C-169.503 107.311 -153.524 104.42 -138.529 98.1231C-123.534 91.8262 -109.828 82.2517 -98.2212 69.9659C-90.4513 83.0082 -74.5508 86.5849 -60.4817 86.6157C-53.4241 86.5563 -46.485 84.595 -40.2597 80.9002C-34.0344 77.2054 -28.7089 71.8874 -24.7402 65.4027C-9.22815 82.3916 24.8206 83.5324 38.8619 65.0019C60.1736 85.7216 100.855 78.5066 118.059 53.5012C127.716 64.2618 149.666 59.6677 155.91 46.1629C170.256 68.2701 198.422 75.7317 222.065 68.5476C238.298 63.5835 258.334 50.5104 266.603 34.4465C253.22 45.488 237.233 51.9593 220.594 53.0696Z" fill="#E6E6E6"/>
</g>
</svg>
