<svg width="419" height="358" viewBox="0 0 419 358" fill="none" xmlns="http://www.w3.org/2000/svg">
<g opacity="0.3">
<path d="M417.323 262.322C413.05 248.878 391.683 242.465 380.888 250.173C376.819 243.649 371.538 238.169 365.401 234.106C359.264 230.042 352.414 227.488 345.313 226.617C331.133 224.952 307.823 232.568 297.5 243.513C293.033 229.454 270.195 223.719 257.375 228.097C256.558 222.516 254.532 217.24 251.472 212.723C248.412 208.206 244.409 204.583 239.809 202.167C230.596 197.449 211.421 193.934 202.819 199.916C227.266 173.831 234.675 131.282 224.38 95.3922C214.085 59.5027 187.834 30.6431 156.865 15.2267C125.897 -0.189787 90.7104 -2.90304 57.1888 2.64688C41.7878 5.17518 26.1093 9.67682 13.8162 20.3142C1.5231 30.9515 -12.546 50.0371 -8.88303 66.841C-11.7175 63.7687 -15.3553 61.7735 -19.2741 61.142C-23.1929 60.5104 -27.191 61.275 -30.6942 63.326C-37.6039 67.5809 -43.792 78.2492 -41.7941 86.7899C-52.7959 80.2567 -65.4743 78.0892 -77.7348 80.6456C-89.9953 83.202 -101.104 90.3292 -109.226 100.85C-124.904 122.433 -133.479 155.609 -117.023 176.329C-120.991 166.616 -151.849 148.579 -169.165 180.491C-172.412 174.89 -177.195 170.597 -182.807 168.249C-188.418 165.9 -194.561 165.62 -200.328 167.449C-211.733 171.365 -223.082 191.961 -222.527 205.219C-227.597 199.932 -233.624 195.908 -240.206 193.417C-246.788 190.927 -253.773 190.026 -260.693 190.776C-267.613 191.526 -274.31 193.91 -280.334 197.767C-286.359 201.624 -291.573 206.865 -295.628 213.142C-299.682 219.418 -302.484 226.584 -303.846 234.16C-305.207 241.736 -305.097 249.548 -303.523 257.073C-301.948 264.598 -298.946 271.663 -294.717 277.795C-290.487 283.927 -285.128 288.985 -278.998 292.63C-275.124 301.283 -269.433 308.772 -262.406 314.466C-255.378 320.16 -247.221 323.891 -238.622 325.344C-230.058 326.521 -221.364 325.371 -213.287 321.993C-205.211 318.615 -197.993 313.11 -192.252 305.95C-185.371 317.697 -162.949 319.578 -153.597 310.174C-148.63 319.27 -132.064 321.058 -124.793 314.121C-103.787 340.915 -69.2939 355.992 -37.2986 357.534C-21.2802 358.219 -5.30084 355.327 9.69418 349.03C24.6892 342.733 38.3953 333.159 50.0016 320.873C57.7715 333.915 73.6721 337.492 87.7412 337.523C94.7987 337.464 101.738 335.502 107.963 331.807C114.189 328.113 119.514 322.795 123.483 316.31C138.995 333.299 173.043 334.44 187.085 315.909C208.396 336.629 249.077 329.414 266.282 304.408C275.939 315.169 297.889 310.575 304.133 297.07C318.479 319.177 346.645 326.639 370.288 319.455C393.93 312.271 425.509 288.036 417.323 262.322Z" fill="#F5F5F5"/>
<path d="M368.594 304.07C342.204 305.488 314.649 290.842 297.944 268.118C290.917 279.461 280.203 287.331 268.057 290.071C257.13 292.285 245.857 290.836 235.673 285.909C239.497 284.093 242.959 281.452 245.858 278.139C250.167 273.413 252.765 267.093 253.156 260.379C249.068 263.923 244.681 267.021 240.058 269.629C231.951 274.302 222.872 276.494 213.751 275.981C208.557 275.684 203.4 274.838 198.35 273.452C201.224 279.356 205.927 283.902 211.587 286.248C216.656 288.456 222.15 289.178 227.543 288.345C222.946 294.577 216.369 298.606 209.173 299.599C199.972 300.537 190.737 298.263 182.755 293.093C176.555 289.504 170.525 285.563 164.69 281.284C166.294 280.241 167.745 278.931 168.991 277.399C171.594 274.361 173.019 270.308 172.959 266.114C170.685 268.621 168.118 270.778 165.328 272.527C162.919 274.065 160.306 275.168 157.586 275.796C154.843 276.389 152.031 276.483 149.261 276.073C146.087 275.644 142.979 274.741 140.021 273.391C141.411 277.285 144.121 280.418 147.568 282.117C150.759 283.782 154.314 284.392 157.808 283.874C156.675 289.258 153.912 294.048 149.983 297.441C144.155 302.158 134.443 301.387 130.169 294.912C123.878 299.117 116.731 301.483 109.394 301.791C102.058 302.098 94.7705 300.336 88.212 296.67C76.4185 289.886 68.4543 275.549 66.3731 260.811C69.1055 259.48 71.7011 257.826 74.1152 255.878C79.2232 251.828 83.4518 246.561 86.4916 240.461C80.3311 242.28 74.9477 244.685 69.6753 246.628C64.7401 248.547 59.6602 249.971 54.4963 250.883C49.5921 251.657 44.608 251.553 39.7335 250.574C34.2783 249.519 29.1028 247.128 24.5822 243.575C25.2429 247.212 26.6546 250.628 28.706 253.554C30.7574 256.481 33.3924 258.839 36.4035 260.441C40.9151 263.085 45.9272 264.501 51.0276 264.573L50.4725 264.85C46.5367 276.56 40.0654 287.012 31.6306 295.282C23.1022 303.566 12.0012 307.825 0.689758 307.153C-10.4101 306.105 -22.3424 298.211 -26.8379 286.803C-33.5557 293.378 -41.5163 298.194 -50.1326 300.894C-58.7489 303.594 -67.8008 304.11 -76.6207 302.405C-84.4498 300.555 -91.7214 296.505 -97.7407 290.643C-103.76 284.781 -108.326 277.302 -111.002 268.92C-108.804 267.98 -106.695 266.802 -104.703 265.405C-98.619 261.309 -94.0226 254.969 -91.7165 247.491C-97.0891 251.006 -102.818 253.8 -108.783 255.816C-114.18 257.636 -119.792 258.551 -125.432 258.529C-131.091 258.451 -136.706 257.411 -142.082 255.446C-148.014 253.302 -153.696 250.383 -159.009 246.751C-156.803 254.254 -152.321 260.673 -146.328 264.912C-143.819 266.732 -141.127 268.222 -138.308 269.352C-140.832 275.841 -144.438 281.741 -148.936 286.741C-154.488 292.913 -161.905 296.573 -169.748 297.009C-173.84 297.096 -177.888 296.064 -181.536 294.005C-185.185 291.946 -188.322 288.922 -190.672 285.2C-195.719 294.706 -203.289 302.245 -212.344 306.783C-216.876 308.993 -221.786 310.085 -226.735 309.984C-231.683 309.883 -236.553 308.591 -241.009 306.197C-249.751 301.11 -256.827 290.226 -256.327 279.28C-263.314 280.68 -270.503 280.169 -277.272 277.789C-284.041 275.409 -290.187 271.233 -295.177 265.621C-299.675 260.365 -303.035 254.038 -305 247.121C-304.519 256.523 -301.903 265.636 -297.395 273.61C-292.887 281.585 -286.634 288.16 -279.221 292.723C-275.347 301.375 -269.656 308.865 -262.629 314.559C-255.601 320.253 -247.444 323.984 -238.845 325.437C-230.28 326.613 -221.587 325.464 -213.51 322.086C-205.434 318.708 -198.216 313.202 -192.475 306.043C-185.593 317.79 -163.172 319.671 -153.82 310.267C-148.853 319.363 -132.286 321.151 -125.016 314.214C-104.01 341.007 -69.5168 356.085 -37.5215 357.626C-21.5031 358.311 -5.52371 355.42 9.47131 349.123C24.4663 342.826 38.1725 333.252 49.7788 320.966C57.5487 334.008 73.4492 337.585 87.5183 337.616C94.5759 337.556 101.515 335.595 107.74 331.9C113.966 328.205 119.291 322.887 123.26 316.403C138.772 333.392 172.821 334.532 186.862 316.002C208.174 336.722 248.855 329.507 266.059 304.501C275.716 315.262 297.666 310.668 303.91 297.163C318.256 319.27 346.422 326.732 370.065 319.548C386.298 314.584 406.334 301.51 414.603 285.446C401.22 296.488 385.233 302.959 368.594 304.07Z" fill="#E6E6E6"/>
<path d="M-67.6321 151.97C-60.1921 140.756 -50.1362 132.014 -38.5505 126.687C-26.7714 121.055 -13.932 118.706 -1.1495 119.845C11.633 120.984 23.9712 125.577 34.7917 133.223C45.4287 140.539 54.0646 150.945 59.7664 163.316C50.8939 154.865 40.9794 147.867 30.3241 142.535C9.68615 132.211 -13.5316 130.141 -35.387 136.677C-46.7448 140.014 -57.6065 145.165 -67.6321 151.97Z" fill="white"/>
<path d="M106.691 89.6568C113.917 82.3554 123.123 77.9301 132.859 77.077C142.903 75.9565 153.021 78.1452 161.952 83.3704C170.884 88.5956 178.234 96.6261 183.086 106.461C188.003 115.843 189.957 126.783 188.636 137.54C185.448 128.413 180.939 119.924 175.288 112.412C170.058 105.389 163.624 99.5911 156.359 95.3565C149.094 91.1218 141.143 88.5346 132.97 87.7452C124.176 86.7747 115.297 87.4206 106.691 89.6568Z" fill="white"/>
<path d="M57.1895 2.89431C41.7884 5.4226 26.1099 9.92424 13.8168 20.5616C1.52376 31.1989 -12.5453 50.2845 -8.88237 67.0884C-11.7168 64.0161 -15.3547 62.0209 -19.2734 61.3894C-23.1922 60.7578 -27.1903 61.5225 -30.6936 63.5735C-37.6032 67.8284 -43.7914 78.4966 -41.7934 87.0373C-52.7952 80.5041 -65.4737 78.3366 -77.7341 80.893C-89.9946 83.4494 -101.103 90.5766 -109.225 101.097C-115.144 109.212 -119.72 118.43 -122.739 128.323C-116.387 118.999 -108.221 111.392 -98.8505 106.068C-89.4804 100.744 -79.1487 97.842 -68.6273 97.5781C-58.1059 97.3142 -47.6669 99.6956 -38.0902 104.544C-28.5134 109.393 -20.0466 116.583 -13.3223 125.578H4.21545C-2.5277 94.0363 6.40768 57.746 25.6937 33.5422C40.1118 15.7349 59.6339 4.02321 80.9431 0.396851C72.99 0.743437 65.06 1.57718 57.1895 2.89431Z" fill="white"/>
</g>
</svg>
