<svg width="195" height="131" viewBox="0 0 195 131" fill="none" xmlns="http://www.w3.org/2000/svg">
<g opacity="0.3">
<path d="M692.785 35.7943C691.893 32.7072 690.225 29.9721 687.98 27.9156C685.735 25.8591 683.007 24.5679 680.123 24.1963C674.337 23.5294 666.735 24.7762 663.959 30.4592C659.807 19.2381 638.246 13.0622 630.903 22.0216C625.137 10.9979 617.052 1.71136 607.35 -5.03354C597.648 -11.7784 586.62 -15.7784 575.223 -16.6868C552.468 -18.2525 520.735 -9.66994 507.217 10.7136C512.156 -10.4907 511.823 -32.7993 506.254 -53.8077C500.685 -74.8162 490.091 -93.7277 475.613 -108.504C461.136 -123.281 443.324 -133.361 424.098 -137.66C404.872 -141.959 384.961 -140.313 366.511 -132.899C329.822 -118.169 299.751 -79.2871 294.302 -36.1424C279.357 -39.3319 260.572 -23.6166 259.767 -6.62549C254.555 -23.0725 245.084 -37.4165 232.56 -47.8349C220.035 -58.2534 205.022 -64.276 189.427 -65.1375C158.292 -66.1813 123.264 -42.5793 111.588 -10.3658C110.87 -13.2024 109.469 -15.7646 107.539 -17.7736C105.608 -19.7827 103.222 -21.1618 100.639 -21.7609C95.4497 -22.8917 85.3306 -19.2093 82.1392 -14.5411C79.5048 -18.5014 75.8865 -21.509 71.7346 -23.1896C67.5828 -24.8702 63.0804 -25.1498 58.7875 -23.9935C50.2511 -21.4419 41.0402 -11.1777 40.1321 -1.34836C35.445 -2.7242 30.491 -2.43636 25.9568 -0.524734C21.4226 1.38687 17.533 4.82756 14.8271 9.32028C12.1212 13.813 10.7331 19.1352 10.8553 24.5491C10.9775 29.9629 12.6039 35.2001 15.5091 39.5347C7.15437 39.5347 -1.84902 55.6269 0.330474 64.6154C0.984734 66.7944 2.05061 68.7909 3.45578 70.4693C4.86095 72.1478 6.5726 73.469 8.47472 74.3434C10.3768 75.2179 12.425 75.6251 14.4803 75.5375C16.5356 75.4499 18.55 74.8696 20.387 73.8358C35.3061 90.7399 57.8793 101.816 79.1294 100.598C89.7766 99.9143 100.179 96.7523 109.669 91.3149C119.159 85.8775 127.528 78.2846 134.239 69.0227C154.581 88.6523 186.677 94.4223 209.484 78.475C225.648 100.134 258.782 102.773 277.515 83.984C316.871 115.028 364.064 131.229 412.228 130.231C459.465 128.747 504.996 110.179 541.985 77.3152C553.869 97.1768 581.995 101.323 598.393 86.0137C606.592 101.352 630.047 99.9024 646.004 98.7136C660.352 97.6697 675.064 93.6394 686.117 83.3752C697.17 73.1109 696.885 51.2197 692.785 35.7943Z" fill="#F5F5F5"/>
<path d="M688.216 81.0843C677.584 85.6584 666.186 87.5795 654.82 86.713C643.453 85.8465 632.394 82.2134 622.416 76.0682C616.526 72.2988 609.651 66.1809 608.82 58.6712C604.294 63.0859 598.898 66.2431 593.073 67.8857C587.247 69.5283 581.157 69.6098 575.298 68.1235C563.648 65.021 555.345 54.2059 550.934 41.7961C534.094 61.7052 513.873 77.6644 491.451 88.7413C469.029 99.8182 444.857 105.791 420.347 106.31C371.386 107.064 326.213 80.6204 291.86 41.6801C285.886 52.7114 278.053 62.3419 268.794 70.0372C259.383 77.7898 247.783 81.486 236.128 80.4464C230.382 79.8475 224.869 77.611 220.117 73.9508C215.365 70.2906 211.533 65.3291 208.988 59.541C208.158 59.541 209.585 58.6422 208.729 58.5552C203.614 64.739 197.194 69.3911 190.055 72.0859C182.915 74.7806 175.286 75.432 167.863 73.9805C153.1 70.9071 139.711 60.0629 134.315 44.4056C127.263 59.3819 117.047 72.209 104.554 81.7738C92.0615 91.3387 77.6688 97.3524 62.625 99.2931C67.9474 100.447 73.374 100.885 78.7895 100.598C89.4367 99.914 99.8387 96.7521 109.329 91.3146C118.819 85.8772 127.188 78.2843 133.899 69.0224C154.241 88.6521 186.337 94.422 209.144 78.4747C225.308 100.134 258.442 102.773 277.175 83.9838C316.531 115.028 363.724 131.229 411.888 130.231C459.241 128.828 504.902 110.255 541.983 77.315C553.866 97.1765 581.992 101.323 598.39 86.0135C606.589 101.352 630.044 99.9021 646.001 98.7133C660.35 97.6695 675.061 93.6391 686.114 83.3749C686.865 82.6712 687.568 81.9055 688.216 81.0843Z" fill="#E6E6E6"/>
<path d="M171.263 31.3862C167.881 36.998 163.386 41.6627 158.128 45.0181C152.871 48.3734 146.992 50.3289 140.948 50.7328C134.904 51.1367 128.858 49.9781 123.28 47.3468C117.702 44.7156 112.742 40.6828 108.785 35.5615C129.639 39.1669 150.942 37.7432 171.263 31.3862Z" fill="#E6E6E6"/>
<path d="M70.6214 24.3699C67.0521 23.1526 63.2856 22.8357 59.5934 23.442C55.9013 24.0483 52.3755 25.5627 49.2705 27.876C46.1654 30.1892 43.5585 33.2436 41.6377 36.819C39.7168 40.3944 38.5299 44.4017 38.1626 48.5517C47.166 37.2436 57.3628 27.4434 70.6214 24.3699Z" fill="white"/>
<path d="M201.702 5.26202C200.815 1.2086 199.133 -2.57408 196.778 -5.8128C194.424 -9.05152 191.455 -11.6654 188.086 -13.4659C184.717 -15.2663 181.033 -16.2083 177.299 -16.2238C173.564 -16.2393 169.874 -15.328 166.493 -13.5556C179.803 -10.7141 192.543 -5.901 201.702 5.26202Z" fill="white"/>
</g>
</svg>
